<?xml version="1.0" standalone="no"?>
<!DOCTYPE svg PUBLIC "-//W3C//DTD SVG 1.1//EN" "http://www.w3.org/Graphics/SVG/1.1/DTD/svg11.dtd" >
<svg xmlns="http://www.w3.org/2000/svg">
<metadata>
This is a custom SVG webfont generated by Font Squirrel.
Copyright   : Created by caleb hanson with FontForge 20 httpfontforgesfnet
</metadata>
<defs>
<font id="fonticonsMedium" horiz-adv-x="2048" >
<font-face units-per-em="2048" ascent="1638" descent="-410" />
<missing-glyph horiz-adv-x="500" />
<glyph unicode="!" d="M102 614q0 188 73 358t197 294t294 197t358 73t358 -73t294 -197t197 -294t73 -358t-73 -358t-197 -294t-294 -197t-358 -73t-358 73t-294 197t-197 294t-73 358zM784 122q0 -78 63 -137t155 -59q100 0 163 57t63 139t-64 142t-162 60t-158 -63t-60 -139zM792 896 l102 -480h252l100 480v362h-454v-362z" />
<glyph unicode="#" d="M102 614q0 188 73 358t197 294t294 197t358 73t358 -73t294 -197t197 -294t73 -358t-73 -358t-197 -294t-294 -197t-358 -73t-358 73t-294 197t-197 294t-73 358zM482 770q-6 -20 14 -32l298 -202l-114 -346q-4 -16 4 -28l10 -10h12h12l312 224l310 -212q10 -6 18 -6 l16 2l6 10q10 12 4 28l-120 344l288 208q20 12 14 31t-30 19l-362 -4l-124 356q-6 22 -26 22t-28 -22l-116 -358l-368 -4q-24 0 -30 -20z" />
<glyph unicode="(" d="M180 -246q236 584 548 1038q-280 270 -510 456q-58 48 34 108q96 66 212 68q66 0 100 -26q176 -144 374 -326q188 226 390 408q54 46 194 54q136 8 140 -40q2 -26 -38 -62q-268 -238 -492 -548q364 -356 722 -778q54 -62 -46 -126q-96 -64 -208 -58q-64 2 -92 36 q-286 336 -572 628q-212 -354 -384 -780q-28 -70 -176 -102q-136 -30 -186 8q-20 14 -10 42z" />
<glyph unicode=")" d="M112 610q-38 42 54 90q98 52 180 40q30 -4 44 -20q168 -186 304 -530q358 638 964 1216q46 42 182 52q112 8 106 -26q-2 -10 -14 -20q-372 -354 -653 -731t-473 -809q-10 -24 -53 -51t-92 -42t-93 -9t-58 40q-16 42 -61 164t-69 180t-67 152t-92 166t-109 138z" />
<glyph unicode="*" d="M104 797q2 7 10 14t14 11l8 2q16 6 32 6l592 8q18 0 22 16l190 578q6 16 16 28q20 24 36 24q6 0 15 -6t15 -12l4 -6q12 -12 18 -28l200 -574q4 -16 22 -16l580 6q18 0 34 -4q28 -12 32 -28q2 -4 1 -10t-3 -11t-4 -9t-3 -7l-1 -3q-10 -14 -24 -24l-464 -332 q-14 -10 -8 -26l192 -554q14 -40 8 -52q-8 -12 -14 -20q-6 -10 -18 -10q-22 0 -32 4q-10 6 -24 16l-502 338q-14 10 -28 0l-502 -358q-14 -10 -24 -12q-12 -2 -22 -2t-18 9t-14 21v18q0 18 6 34l182 556q6 16 -8 26l-480 326q-14 8 -24 22q-2 4 -5 8t-6 15t-1 18zM388 718 l330 -224q14 -10 24 -24l16 -46q0 -16 -6 -32l-126 -390q-4 -6 -1 -8t9 2l346 248q14 10 30 14h46q16 -4 30 -14l352 -238q6 -4 8 -2t0 8l-136 390q-4 14 -4 32l14 46q10 14 24 24l318 226q14 10 -2 10l-400 -4q-16 0 -32 6l-40 26q-10 14 -16 30l-142 408q-6 16 -10 0 l-136 -412q-4 -16 -14 -28l-38 -28q-16 -6 -32 -6l-410 -4q-16 0 -2 -10zM680 674q-14 10 4 10l236 2q18 0 22 16l76 232q6 16 12 0l80 -230q6 -16 22 -16l232 2q18 0 4 -8l-186 -134q-14 -10 -10 -26l78 -222q2 -8 0 -9t-8 1l-200 136q-14 10 -28 0l-196 -140q-6 -4 -9 -2 t-1 8l74 224q6 16 -8 26z" />
<glyph unicode="+" d="M102 614q0 188 73 358t197 294t294 197t358 73t358 -73t294 -197t197 -294t73 -358t-73 -358t-197 -294t-294 -197t-358 -73t-358 73t-294 197t-197 294t-73 358zM234 614q0 -214 106 -396t288 -287t396 -105t396 105t287 287t105 396t-105 396t-287 288t-396 106 t-396 -106t-288 -288t-106 -396zM534 494v252h386v386h254v-386h386v-252h-386v-388h-254v388h-386z" />
<glyph unicode="-" d="M102 614q0 188 73 358t197 294t294 197t358 73t358 -73t294 -197t197 -294t73 -358t-73 -358t-197 -294t-294 -197t-358 -73t-358 73t-294 197t-197 294t-73 358zM234 614q0 -214 106 -396t288 -287t396 -105t396 105t287 287t105 396t-105 396t-287 288t-396 106 t-396 -106t-288 -288t-106 -396zM590 494v252h862v-252h-862z" />
<glyph unicode="." d="M102 614q0 188 73 358t197 294t294 197t358 73t358 -73t294 -197t197 -294t73 -358t-73 -358t-197 -294t-294 -197t-358 -73t-358 73t-294 197t-197 294t-73 358zM774 618h70v-454h-68v-244h538v244h-80v700h-460v-246zM818 1177q0 -85 60 -145t145 -60t145 60t60 145 t-60 145t-145 60t-145 -60t-60 -145z" />
<glyph unicode="0" d="M106 364l70 294l80 330l56 234q12 48 53 73t87 13l536 -128l318 -76l310 -76l170 -40l36 -8q46 -12 72 -53t14 -89l-40 -162l-106 -448l-60 -248q-12 -48 -53 -73t-89 -13l-562 134l-318 78l-212 50l-170 42l-106 24q-48 12 -73 53t-13 89zM130 834q-12 48 12 89t72 55 l42 10l-80 -330zM270 382l304 286q14 14 34 8q18 -2 28 -22l74 -172l280 232q14 12 32 8q20 -6 28 -20l184 -366l128 84q12 8 30 6q16 -4 24 -20l158 -288l174 720l-1294 310zM298 198l170 -42l26 -98l186 48l318 -78l-502 -132q-14 -2 -28 -2q-40 0 -72 24t-42 62z M988 1180l588 154q44 12 87 -13t55 -71l68 -262l-170 40l-38 146l-272 -70zM1398 643q-20 47 0 94t67 68t94 2t68 -66t2 -95t-67 -68t-96 -1t-68 66zM1762 228l106 448l74 -280q12 -46 -12 -88t-72 -54z" />
<glyph unicode="1" d="M310 -202v1632q0 44 32 75t78 31h778q68 0 114 -48l382 -396q44 -46 44 -108v-1186q0 -44 -32 -75t-78 -31h-1208q-46 0 -78 31t-32 75zM456 -168h1136v1136h-378q-14 0 -25 10t-11 24v394h-722v-1564zM644 169q0 39 38 39h682q18 0 29 -10t11 -28q0 -40 -40 -40h-682 q-38 0 -38 39zM644 470q0 38 38 38h682q40 0 40 -38q0 -18 -11 -28t-29 -10h-682q-38 0 -38 38zM644 768q0 38 38 38h682q40 0 40 -38t-40 -38h-682q-38 0 -38 38zM1250 1036h298l-298 310v-310z" />
<glyph unicode="2" d="M132 -202v1632q0 44 32 75t78 31h778q68 0 114 -48l382 -396q44 -46 44 -108v-144h-146v128h-378q-14 0 -25 10t-11 24v394h-722v-1564h1136v240h146v-274q0 -44 -32 -75t-78 -31h-1208q-46 0 -78 31t-32 75zM614 246v418q0 44 30 75t74 31h1094q44 0 74 -31t30 -75v-418 q0 -44 -30 -74t-74 -30h-1094q-44 0 -74 30t-30 74zM768 302h164v68h-30v78h38q58 0 96 27t38 75q0 50 -29 80t-111 30h-166v-68h28v-222h-28v-68zM922 504v88h24q48 0 48 -46q0 -42 -50 -42h-22zM1072 1036h298l-298 310v-310zM1094 302h154q94 0 145 48t51 136 q0 76 -52 125t-142 49h-156v-68h32v-222h-32v-68zM1250 370v222h20q38 0 57 -31t19 -75q0 -114 -76 -116h-20zM1462 302h190v68h-52v66h96v68h-96v88h76v-46h90v114h-304v-68h32v-222h-32v-68z" />
<glyph unicode="3" d="M132 -202v1632q0 44 32 75t78 31h778q68 0 114 -48l382 -396q44 -46 44 -108v-144h-146v128h-378q-14 0 -25 10t-11 24v394h-722v-1564h1136v240h146v-274q0 -44 -32 -75t-78 -31h-1208q-46 0 -78 31t-32 75zM614 246v418q0 44 30 75t74 31h1094q44 0 74 -31t30 -75v-418 q0 -44 -30 -74t-74 -30h-1094q-44 0 -74 30t-30 74zM666 254h174q108 0 166 54t58 152q0 86 -59 142t-161 56h-178v-76h36v-252h-36v-76zM822 330v252h22q42 0 64 -35t22 -87q0 -58 -21 -94t-65 -36h-22zM822 330v252h22q42 0 64 -35t22 -87q0 -58 -21 -94t-65 -36h-22z M1072 1036h298l-298 310v-310zM1078 458q0 -106 56 -161t150 -55q98 0 151 56t53 156t-52 157t-156 57q-90 0 -146 -58t-56 -152zM1220 458q0 54 17 88t43 34q64 0 64 -126q0 -54 -16 -87t-44 -33t-46 34t-18 90zM1220 458q0 54 17 88t43 34q64 0 64 -126q0 -54 -16 -87 t-44 -33t-46 34t-18 90zM1506 452q0 -96 56 -152t148 -56q102 0 176 82l-68 74q-52 -58 -92 -58t-62 32t-22 78q0 48 19 81t49 33t45 -21t17 -51h104v164h-92l-14 -32q-28 38 -88 38q-64 0 -120 -59t-56 -153z" />
<glyph unicode="4" d="M310 -202v1632q0 44 32 75t78 31h778q68 0 114 -48l382 -396q44 -46 44 -108v-1186q0 -44 -32 -75t-78 -31h-1208q-46 0 -78 31t-32 75zM456 -168h1136v1136h-378q-14 0 -25 10t-11 24v394h-722v-1564zM592 676q0 78 55 133t133 55q62 0 111 -36t67 -94q20 58 69 94 t111 36q78 0 133 -55t55 -133q0 -50 -26 -93t-70 -69h50v-60h40q2 12 8 20l66 74q16 16 39 8t23 -32v-380q0 -24 -22 -32q-6 -2 -14 -2q-14 0 -24 10l-66 64q-10 12 -10 26v4h-40v-60h-652v360h60q-44 26 -70 69t-26 93zM662 677q0 -49 35 -84t84 -35t83 35t34 84t-34 83 t-83 34t-84 -34t-35 -83zM730 684q0 22 14 37t36 15t37 -15t15 -37t-15 -37t-37 -15t-36 15t-14 37zM874 514h170q-62 36 -86 106q-22 -70 -84 -106zM1020 677q0 -49 34 -84t83 -35t84 35t35 84t-35 83t-84 34t-83 -34t-34 -83zM1086 684q0 22 15 37t37 15t36 -15t14 -37 t-14 -37t-36 -15t-37 15t-15 37zM1250 1036h298l-298 310v-310z" />
<glyph unicode="5" d="M310 -202v1632q0 44 32 75t78 31h778q68 0 114 -48l382 -396q44 -46 44 -108v-1186q0 -44 -32 -75t-78 -31h-1208q-46 0 -78 31t-32 75zM456 -168h1136v1136h-378q-14 0 -25 10t-11 24v394h-722v-1564zM542 386v226q0 28 20 48t50 20h122l190 190q12 14 30 8q4 -4 10 -8 q8 -8 8 -18v-706q0 -18 -18 -25t-30 5l-190 192h-122q-30 0 -50 20t-20 48zM1048 396q26 30 36 62t7 55t-14 45t-17 30t-12 12q-16 18 1 35t35 1q26 -28 43 -66t11 -96t-54 -110q-6 -8 -18 -8q-10 0 -16 6q-18 16 -2 34zM1188 324q46 50 62 105t11 94t-24 77t-30 51t-19 23 q-16 16 1 33t35 1q6 -8 19 -24t36 -61t30 -92t-12 -113t-73 -126q-8 -8 -18 -8t-16 6q-18 16 -2 34zM1250 1036h298l-298 310v-310zM1328 252q64 72 88 149t16 132t-35 109t-42 73t-27 31q-18 18 0 35t34 -1q10 -10 28 -32t48 -83t41 -124t-15 -152t-100 -171q-8 -8 -18 -8 t-16 6q-20 18 -2 36z" />
<glyph unicode="6" d="M168 -148v1274q0 44 33 75t77 31h692q0 -66 -2 -150h-650v-1054q-10 -32 -12 -58q-14 -122 50 -224h-78q-44 0 -77 31t-33 75zM416 -42q12 106 132 202q150 120 352 98q6 0 58 -18t78 -10q24 8 31 56t4 145t-3 113q14 504 14 846q0 10 -1 35t0 38t4 31t12 28t23 12 q24 6 44 -16t44 -70t30 -58q44 -72 176 -211t170 -217q24 -46 39 -116t9 -138q-6 -52 -25 -103t-45 -51q-16 0 -24 9t-9 23t-1 34t1 41t-1 43q-12 176 -130 314q-100 116 -166 108q-36 -4 -44 -43t-8 -143q2 -36 2 -58q0 -100 -5 -286t-5 -286q0 -26 1 -87t1 -87t-4 -73 t-10 -74t-20 -58t-34 -53q-56 -60 -151 -111t-213 -71t-218 36q-48 28 -82 87t-26 139zM1126 -254q40 32 62 56q38 40 58 94h484v728q10 40 14 74q8 86 -14 180v204h-88q-40 60 -124 150h252q44 0 77 -31t33 -75v-1274q0 -44 -33 -75t-77 -31h-644z" />
<glyph unicode="7" d="M102 -72v1372q0 48 35 81t85 33h1604q50 0 85 -33t35 -81v-1372q0 -48 -35 -81t-85 -33h-1604q-50 0 -85 33t-35 81zM264 194h1520v868h-1520v-868zM288 0h130v130h-130v-130zM288 1124h130v132h-130v-132zM512 0h132v130h-132v-130zM512 1124h132v132h-132v-132zM738 0 h130v130h-130v-130zM738 1124h130v132h-130v-132zM862 334v560q0 16 13 21t25 -5l280 -280q16 -16 0 -32l-280 -280q-12 -10 -24 -6q-4 2 -8 6q-6 6 -6 16zM962 0h130v130h-130v-130zM962 1124h130v132h-130v-132zM1186 0h130v130h-130v-130zM1186 1124h130v132h-130v-132z M1410 0h132v130h-132v-130zM1410 1124h132v132h-132v-132zM1636 0h130v130h-130v-130zM1636 1124h130v132h-130v-132z" />
<glyph unicode="8" d="M104 797q10 33 48 33l626 6l200 610q12 36 46 36t46 -36l210 -604l614 6q40 0 50 -32t-22 -54l-492 -352l206 -586q8 -26 -6 -46l-12 -18l-26 -2q-14 0 -30 10l-528 358l-530 -378l-20 -2h-22l-16 18q-14 20 -4 46l192 588l-508 344q-32 22 -22 55zM374 728l358 -244 q18 -12 26 -33t0 -43l-138 -420l372 266q18 12 40 12t40 -12l380 -258l-148 422q-6 20 1 41t25 35l344 246l-432 -4q-20 0 -39 13t-25 33l-154 438l-144 -442q-6 -20 -24 -33t-40 -13z" />
<glyph unicode=":" d="M110 1098q-18 28 2 52q22 24 50 12l222 -96q4 28 28 50q28 30 70 30h96v58q0 42 30 71t72 29h94v56q0 42 30 71t72 29h400q14 0 24 -10l246 -264q0 -2 1 -3l1 -1l366 -96q18 -6 28 -26q8 -16 -2 -38l-218 -370v-582q0 -28 -28 -38l-680 -260q-8 -4 -14 -4q-16 0 -24 6 l-626 386q-20 14 -20 36v590zM268 1022l140 -198q6 -8 6 -24v-580l590 -362l632 242v510l-594 -142v-468q0 -18 -12 -30t-30 -12t-31 12t-13 30v508l-446 204q-38 18 -20 56q18 40 56 22l318 -146l-128 170zM446 1038l132 -60v104v-2h-96q-14 0 -25 -10t-11 -24v-8zM644 950 l128 -56h2v344h-94q-14 0 -25 -10t-11 -24v-254zM840 800l166 -252l482 114v488l-2 2h-210q-6 0 -11 5t-5 11v228h-384q-14 0 -25 -11t-11 -25v-560zM962 704q0 12 10 12h384q10 0 10 -12t-10 -12h-384q-10 0 -10 12zM962 872q0 10 10 10h384q10 0 10 -10t-10 -10h-384 q-10 0 -10 10zM962 1040q0 12 10 12h384q10 0 10 -12t-10 -12h-384q-10 0 -10 12zM1302 1196h156l-156 166v-166zM1554 704l40 -16l58 14l186 314l-284 74v-386z" />
<glyph unicode=";" d="M272 -112v1020q0 52 37 89t89 37h122v72q0 52 37 89t89 37h118v72q0 50 37 87t91 37h502q18 0 30 -12l308 -334q10 -12 10 -28v-772q0 -52 -38 -89t-88 -37h-120v-70q0 -52 -37 -90t-89 -38h-724q-52 0 -89 38t-37 90v866h-122q-18 0 -31 -13t-13 -31v-1020q0 -18 13 -32 t31 -14h724q18 0 32 14t14 32v68h82v-68q0 -54 -38 -91t-90 -37h-724q-52 0 -89 37t-37 91zM508 84q0 12 8 14v-14l2 -12q-10 0 -10 12zM508 296q0 10 8 12v-26q-8 4 -8 14zM508 507q0 11 8 13v-26q-8 2 -8 13zM602 86q0 -18 13 -32t31 -14h724q18 0 31 14t13 32v70h-522 q-54 0 -90 36q-32 32 -36 78q-12 0 -12 12t10 14v186q-10 2 -10 12t10 12v186q-10 2 -10 13t10 13v432h-118q-18 0 -31 -13t-13 -31v-1020zM846 282q0 -18 14 -31t32 -13h724q18 0 31 13t13 31v758l-2 2h-264q-8 0 -14 6t-6 14v284h-482q-18 0 -32 -12t-14 -30v-1022z M982 480q0 32 32 32h480q32 0 32 -32t-32 -32h-480q-32 0 -32 32zM982 690q0 32 32 32h480q14 0 23 -9t9 -23t-9 -23t-23 -9h-480q-32 0 -32 32zM982 900q0 32 32 32h480q14 0 23 -8t9 -23t-9 -24t-23 -9h-480q-32 0 -32 32zM1428 1096h194l-194 210v-210z" />
<glyph unicode="&#x3c;" d="M102 614q0 188 73 358t197 294t294 197t358 73t358 -73t294 -197t197 -294t73 -358t-73 -358t-197 -294t-294 -197t-358 -73t-358 73t-294 197t-197 294t-73 358zM696 614q0 -16 10 -26l466 -464q18 -18 40 -9t22 35v928q0 16 -10 26q-6 6 -12 8q-24 10 -40 -8l-466 -464 q-10 -10 -10 -26z" />
<glyph unicode="=" d="M102 614q0 188 73 358t197 294t294 197t358 73t358 -73t294 -197t197 -294t73 -358t-73 -358t-197 -294t-294 -197t-358 -73t-358 73t-294 197t-197 294t-73 358zM502 512h386v-386h254v386h386v254h-386v386h-254v-386h-386v-254z" />
<glyph unicode="&#x3e;" d="M102 614q0 188 73 358t197 294t294 197t358 73t358 -73t294 -197t197 -294t73 -358t-73 -358t-197 -294t-294 -197t-358 -73t-358 73t-294 197t-197 294t-73 358zM850 150q0 -16 12 -26q4 -6 12 -8q22 -10 40 8l464 464q12 10 12 26t-12 26l-464 464q-18 18 -41 9 t-23 -35v-928z" />
<glyph unicode="?" d="M102 614q0 188 73 358t197 294t294 197t358 73t358 -73t294 -197t197 -294t73 -358t-73 -358t-197 -294t-294 -197t-358 -73t-358 73t-294 197t-197 294t-73 358zM550 1050l206 -208q54 64 122 110t126 46q140 0 140 -88q0 -30 -31 -63t-76 -67t-89 -70t-75 -84t-31 -96 v-152h354v104q0 32 31 64t75 64t89 71t76 97t31 128q0 186 -127 288t-327 102q-282 0 -494 -246zM792 128q0 -76 63 -136t153 -60q102 0 165 57t63 139q0 84 -64 143t-164 59q-96 0 -156 -62t-60 -140z" />
<glyph unicode="@" d="M102 106v1014q0 42 28 72t66 30h1656q38 0 66 -30t28 -72v-1014q0 -40 -28 -70t-66 -30h-1656q-38 0 -66 30t-28 70zM216 120h1616v988h-1616v-988zM250 964q-8 22 2 43t32 29t42 -2l698 -326l702 326q22 10 44 2t32 -29t2 -43t-30 -32l-726 -338h-48l-722 338 q-20 10 -28 32z" />
<glyph unicode="A" d="M356 -46q-12 49 -12 95q0 90 46 171l46 88l88 -52l-46 -84q-34 -59 -34 -123q0 -33 9 -68q27 -101 115 -153q20 -10 38 -16q45 -18 90 -18q41 0 81 15q85 31 133 111l660 1132q34 58 34 122q0 34 -10 69q-28 101 -118 153q-58 37 -138 37q-32 0 -67 -6 q-123 -21 -175 -109l-420 -726q-23 -40 -23 -82q0 -21 6 -43q17 -65 77 -99q40 -23 82 -23q21 0 43 6q65 17 99 75l270 464l86 -52l-266 -462q-50 -84 -142 -116q-45 -16 -89 -16l-95 18q-14 4 -38 18q-98 56 -124 162q-10 37 -10 72q0 68 36 130l422 726q64 108 200 148 q60 18 120 18q74 0 146 -28q8 -2 17 -7t19 -11t16 -8q126 -74 164 -215q13 -48 13 -94q0 -90 -49 -173l-656 -1132q-66 -114 -188 -156q-58 -20 -116 -20q-63 0 -126 24q-16 6 -52 24q-126 76 -162 214z" />
<glyph unicode="B" d="M108 312q-7 16 -7 31q0 28 25 53l1090 1088q24 24 61 24t61 -26l584 -622q24 -26 24 -61t-26 -61l-994 -994q-24 -24 -56 -24t-54 23t-22 55v468h-612q-54 0 -74 46z" />
<glyph unicode="C" d="M102 896q0 28 20 48t48 20h346l22 -72q4 4 8 6l812 562q9 6 19 6q4 0 7 -1q14 -3 22 -13l404 -586l2 18q6 28 29 43t50 10t43 -28q12 -17 12 -36q0 -7 -2 -15l-136 -678l-1176 -74l-216 724h-246q-28 0 -48 19t-20 47zM554 838l36 -120l140 -472l214 14l-316 458h1044 l-660 -454l686 42l82 412l24 120h-1250zM774 -106q0 54 38 92t92 38t92 -38t38 -92t-38 -93t-92 -39t-92 39t-38 93zM1332 -106q0 54 38 92t92 38t92 -38t38 -92t-38 -93t-92 -39t-92 39t-38 93z" />
<glyph unicode="D" d="M102 736q0 192 124 354t336 256t462 94t462 -94t336 -256t124 -353t-124 -353t-336 -257t-462 -95q-18 -4 -166 -86q-88 -48 -135 -73t-113 -52t-108 -33h-10q-44 0 -66 38q-10 19 -10 37q0 24 18 47q102 120 138 212q-218 94 -344 258t-126 356zM250 736 q0 -156 118 -291t314 -205q46 -18 50 -66q2 -62 -42 -150q36 20 96 52q112 62 159 83t79 21q210 0 388 75t282 203t104 279t-104 279t-282 202t-388 74t-388 -74t-282 -202t-104 -280z" />
<glyph unicode="G" d="M102 532v164q0 32 23 55t55 23h90q30 138 108 260l-64 64q-22 22 -22 54t22 54l118 118q22 22 54 22t54 -22l64 -64q122 78 260 108v90q0 32 23 55t55 23h164q32 0 55 -23t23 -55v-90q138 -30 260 -108l64 64q22 22 54 22t56 -22l116 -116q22 -24 22 -56t-22 -54l-64 -64 q78 -122 108 -260h90q32 0 55 -23t23 -55v-164q0 -32 -23 -55t-55 -23h-90q-30 -138 -108 -260l64 -64q22 -24 22 -55t-22 -55l-116 -116q-24 -22 -55 -22t-55 22l-64 64q-122 -78 -260 -108v-90q0 -32 -23 -55t-55 -23h-164q-32 0 -55 23t-23 55v90q-138 30 -260 108 l-64 -64q-22 -22 -54 -22t-56 22l-116 116q-22 24 -22 56t22 54l64 64q-78 122 -108 260h-90q-32 0 -55 23t-23 55zM697 659q-4 -26 -4 -51q0 -107 67 -194q96 -130 264 -130q114 0 200 66q108 82 127 219q4 26 4 51q0 107 -67 194q-98 130 -264 130q-112 0 -200 -66 q-108 -82 -127 -219z" />
<glyph unicode="H" d="M102 884q0 222 145 367t369 145q228 0 408 -208q176 208 408 208q238 0 376 -137t138 -375q0 -106 -48 -219t-119 -208t-168 -192t-180 -164t-173 -132t-127 -88t-61 -37q-22 -12 -47 -12t-47 12q-24 14 -60 37t-127 88t-173 132t-180 164t-168 192t-118 208t-48 219z M236 884q0 -82 38 -172t96 -169t139 -161t153 -144t153 -122t126 -90t83 -54q38 24 82 54t125 90t154 122t154 144t139 161t96 169t38 172q0 184 -98 282t-282 98q-58 0 -116 -23t-95 -51t-71 -63t-45 -51t-15 -22q-20 -34 -64 -34t-66 32q-6 10 -16 24t-46 51t-73 64 t-94 50t-115 23q-168 0 -274 -106t-106 -274zM358 790q0 140 93 229t243 89q50 0 100 -18t85 -43t62 -52t40 -43t15 -20q10 -14 29 -14t29 16q12 18 29 37t57 55t97 59t119 23q158 0 246 -84t88 -234q0 -96 -66 -205t-150 -191t-194 -164t-164 -116t-92 -56q-36 20 -92 55 t-164 117t-193 165t-151 191t-66 204z" />
<glyph unicode="I" d="M104 868q-1 6 -1 11q0 13 7 23q16 18 30 20l256 42q0 -14 2 -24q2 -6 3 -21t1 -20t2 -13t4 -10l-250 -46h-10q-40 0 -44 38zM142 1296q-1 6 -1 10q0 14 9 22q10 16 29 20t35 -8l208 -146q0 -6 -4 -14t-4 -12q-8 -26 -10 -42q-2 -6 -2 -15t-2 -13l-3 2q-3 2 -5 4l-230 162 q-16 12 -20 30zM254 490q-1 5 -1 10q0 14 9 24l162 230q4 6 14 14q2 -4 5 -14t5 -12q4 -10 10 -24t8 -18q2 -6 7 -14t7 -12l-144 -202q-14 -18 -28 -20h-10q-12 0 -26 8q-14 14 -18 30zM544 944q0 206 145 352t350 146t350 -145t145 -351q0 -160 -92 -298 q-68 -116 -115 -225t-41 -141q3 -11 3 -22q0 -23 -15 -42q-24 -32 -56 -32h-356q-30 0 -54 32q-16 21 -16 44q0 4 1.5 12.5t1.5 13.5q0 35 -42 133q-47 111 -115 225q-94 142 -94 298zM684 944q0 -114 72 -220l1 -3l1 -3q146 -248 170 -388h224q24 140 170 388l1 2l1 2 q70 104 70 222q0 148 -104 253t-251 105t-251 -105t-104 -253zM838 -4q0 32 19 82t41 58q60 20 149 20t149 -20q22 -8 41 -58t19 -83t-18 -82t-40 -57q-58 -20 -58 -26t-28 -25t-70 -19t-71 19t-29 25q0 2 -18 10t-38 21t-24 23q-24 42 -24 112zM1039 1176q-3 8 -3 17 q0 13 6 27q12 20 36 27t46 -5q60 -32 105 -76t65 -79t32 -73t13 -53t1 -25q0 -38 -60 -38q-30 0 -45 7t-15 31q0 6 -1 16t-10 36t-23 50t-45 54t-73 52q-22 12 -29 32zM1566 680q2 4 4 12q4 10 6 14l18 38q2 6 4 14t4 12q18 -6 22 -16l162 -230q12 -14 8 -34q-4 -16 -18 -30 q-14 -8 -26 -8h-4h-4q-16 4 -30 20zM1620 1190l214 150q12 9 26 9q5 0 9 -1q19 -4 29 -20q12 -12 8 -32q-4 -18 -18 -30l-232 -162q-6 -4 -16 -8q0 4 -1 13t-3 13q-2 14 -10 40q-2 4 -4 13t-2 15zM1632 878q2 2 2 11t2 13l6 38v14q2 6 2 12l264 -44q16 -4 30 -18 q7 -10 7 -24q0 -6 -1 -12q-4 -38 -44 -38h-10z" />
<glyph unicode="K" d="M102 88v764q0 52 37 89t89 37h382l146 262q16 26 48 26h452q32 0 48 -28l140 -260h376q52 0 89 -37t37 -89v-764q0 -52 -37 -89t-89 -37h-1592q-52 0 -89 37t-37 89zM210 88q0 -18 18 -18h1592q18 0 18 18v764q0 18 -18 18h-408q-34 0 -48 30l-140 258h-390l-146 -260 q-16 -28 -46 -28h-414q-18 0 -18 -18v-764zM680 470q0 142 101 243t243 101t243 -101t101 -243t-101 -243t-243 -101t-243 101t-101 243zM788 470q0 -98 69 -167t167 -69t167 69t69 167t-69 167t-167 69t-167 -69t-69 -167zM1492 703q0 35 25 60t60 25t59 -25t24 -60 t-24 -59t-59 -24t-60 24t-25 59z" />
<glyph unicode="L" d="M102 -124v1330q0 28 21 49t49 21h974l24 -56q-98 -34 -184 -86h-742v-1188h1410v610q38 22 58 58l82 140v-878q0 -30 -20 -51t-50 -21h-1552q-28 0 -49 21t-21 51zM585 183v17q0 59 6 117q7 67 30 160t63 175q48 104 117 189t136 136t144 90t130 56t105 27l-86 194 q-8 20 0 40q0 6 10 18q20 21 43 21q5 0 11 -1l132 -30l476 -106q24 -2 38 -34q6 -13 6 -24q0 -13 -8 -24l-248 -420l-68 -116q-16 -26 -52 -26q-16 0 -18 2q-20 8 -30 30l-94 218q-270 -66 -452 -254q-88 -92 -184 -237t-148 -243l-52 -98q-2 12 -4 34t-3 89z" />
<glyph unicode="O" d="M144 1280q-1 8 -1 15q0 39 26 73q31 40 81 46l976 120q8 1 16 1q40 0 73 -25q39 -30 46 -80q1 -9 1 -18q0 -39 -25 -72q-31 -40 -81 -46l-20 -2v-266l592 -74q36 -4 58 -33q19 -25 19 -54q0 -5 -1 -11q-4 -28 -22 -48t-44 -26v-1042q0 -18 -13 -31t-31 -13h-602v-2h-16 h-60h-822q-24 0 -42 18t-18 42v1426q-36 8 -61 36t-29 66zM354 -186h268v330h216v-330h278v1226v90h-2v148l-572 -72l-188 -26v-1366zM622 228v218h216v-218h-216zM622 528v218h216v-218h-216zM622 830v218h216v-218h-216zM1236 -218h160v242h160v-242h194v1000l-136 18 l-378 48v-1066zM1396 86v158h160v-158h-160zM1396 306v158h160v-158h-160zM1396 526v158h160v-158h-160z" />
<glyph unicode="P" d="M102 -56q22 298 54 336q52 60 174 174t164 114q12 0 30 8q168 -144 386 -144q212 0 374 136q58 -4 192 -64q-154 -38 -255 -164t-101 -290q0 -52 14 -106h-220h-56h-756zM394 1020q0 212 151 363t364 151t364 -151t151 -363t-151 -363t-364 -151t-364 151t-151 363z M468 1020q0 -182 130 -312t312 -130t311 130t129 312t-129 312t-311 130t-312 -130t-130 -312zM1232 50q0 148 104 253t252 105t253 -105t105 -253t-105 -252t-253 -104t-252 104t-104 252zM1282 50q0 -126 90 -216t217 -90t216 90t89 216q0 128 -89 218t-216 90t-217 -90 t-90 -218zM1398 4v98h150v150h98v-150h150v-98h-150v-150h-98v150h-150z" />
<glyph unicode="S" d="M102 614q0 188 73 358t197 294t294 197t358 73t358 -73t294 -197t197 -294t73 -358t-73 -358t-197 -294t-294 -197t-358 -73t-358 73t-294 197t-197 294t-73 358zM419 841q-3 -26 -3 -51q0 -146 96 -264q112 -138 290 -156q25 -3 49 -3q118 0 221 65l36 -44l-10 -8 q-16 -12 -18 -33t12 -37l42 -54q6 -10 12 -18l166 -204q28 -36 73 -40h11q38 0 69 24q35 28 40 73q1 7 1 13q0 37 -24 66l-166 206q-8 8 -16 14l-42 54q-14 16 -35 18t-37 -12l-10 -6l-34 42q114 110 130 266q3 26 3 52q0 145 -96 262q-113 138 -289 157q-26 3 -50 3 q-146 0 -264 -96q-138 -112 -157 -289zM564 825q12 117 103 191q78 64 176 64q16 0 32 -2q117 -12 191 -103q64 -78 64 -176q0 -16 -2 -32q-12 -117 -103 -191q-78 -64 -176 -64q-16 0 -32 2q-117 12 -191 103q-64 78 -64 176q0 16 2 32z" />
<glyph unicode="T" d="M192 1219q0 47 33 80t81 33h404v130q0 30 17 52t43 22h524q24 0 42 -22t18 -52v-130h388q48 0 81 -33t33 -80t-33 -81t-81 -34h-16v-1336q0 -32 -22 -54t-54 -22h-1252q-32 0 -54 22t-22 54v1336h-16q-48 0 -81 34t-33 81zM474 -156h1100v1260h-1100v-1260zM682 -38v1010 q0 16 12 27t27 11t26 -11t11 -27v-1010q0 -16 -11 -27t-26 -11t-27 11t-12 27zM804 1404q0 -16 11 -27t27 -11h380q16 0 27 11t11 27v22q0 16 -11 27t-27 11h-380q-16 0 -27 -11t-11 -27v-22zM986 -38v1010q0 16 11 27t27 11t27 -11t11 -27v-1010q0 -16 -11 -27t-27 -11 t-27 11t-11 27zM1290 -38v1010q0 16 11 27t26 11t27 -11t12 -27v-1010q0 -16 -12 -27t-27 -11t-26 11t-11 27z" />
<glyph unicode="U" d="M102 -42v1312q0 52 38 90t92 38h1584q54 0 92 -38t38 -90v-1312q0 -52 -38 -90t-92 -38h-260h-72v172q0 38 -22 66t-51 28t-50 -28t-21 -66v-172h-72h-488h-72v172q0 38 -21 66t-50 28t-51 -28t-22 -66v-172h-72h-226h-34q-54 0 -92 38t-38 90zM218 -42q0 -14 14 -14h260 v58q0 70 43 118t102 48t101 -48t42 -118v-58h488v58q0 70 42 118t101 48t102 -48t43 -118v-58h260q14 0 14 14v1312q0 14 -14 14h-1584q-14 0 -14 -14v-1312zM440 412q10 100 24 116q12 14 70 39t80 25q18 0 39 21t29 39q4 8 -12 46t-14 44l-7 -2q-7 -2 -9 -2q-10 0 -10 14 l-8 36q-6 22 -6 34q2 20 12 20q4 0 2 22l-2 24q-4 26 -4 45q0 51 26 61q2 12 7 18t15 12t14 10q0 4 11 9t32 11t43 8h4h6h2h2h2h2h2h4h6q20 -2 41 -8t33 -11t12 -9q4 -4 13 -10t14 -12t9 -18q16 -6 22 -33t2 -51l-2 -22q-8 -46 0 -46q10 0 12 -20l-8 -34q-6 -28 -6 -36 q0 -14 -12 -14q-2 0 -8 2t-8 2q2 -6 -13 -44t-11 -46q8 -18 29 -39t39 -21q22 0 80 -25t70 -39q6 -8 12 -36t8 -54l2 -26h-334h-24h-334zM774 412zM798 412zM1164 686q0 10 7 17t17 7h446q10 0 17 -7t7 -17t-7 -18t-17 -8h-446q-10 0 -17 8t-7 18zM1164 875q0 11 7 17t17 6 h446q10 0 17 -6t7 -17t-7 -17t-17 -6h-446q-10 0 -17 6t-7 17z" />
<glyph unicode="W" d="M106 -196l272 478q2 4 6 8l1244 1176q12 11 24 11l24 -11l260 -262q10 -10 10 -24t-12 -24l-1226 -1168q-4 -6 -10 -8l-548 -224q-6 -4 -14 -4q-14 0 -26 12q-9 10 -9 22q0 9 5 18zM302 8l82 -82l232 96l-196 194zM464 270l118 -118l1154 1154l-86 88zM616 118l64 -64 l1182 1128l-90 90z" />
<glyph unicode="X" d="M102 614q0 188 73 358t197 294t294 197t358 73t358 -73t294 -197t197 -294t73 -358t-73 -358t-197 -294t-294 -197t-358 -73t-358 73t-294 197t-197 294t-73 358zM562 338l180 -178l272 272l274 -272l178 178l-272 274l272 272l-178 180l-274 -274l-272 274l-180 -180 l274 -272z" />
<glyph unicode="Y" d="M112 -234v754h208q140 0 204 -62q24 -24 24 -66v-11q0 -133 90 -225q54 -52 134 -83t121 -35t69 -4h324v-192q0 -24 24 -38q12 -4 22 -4q14 0 24 8l404 294q18 14 18 34t-18 36l-404 292q-20 18 -46 4q-24 -12 -24 -38v-192h-324q-120 0 -180 62q-32 36 -32 90v466 q0 56 32 90q60 62 180 62h324v-190q0 -26 24 -38q12 -4 22 -6q16 2 24 8l404 294q18 14 18 34t-18 36l-404 292q-20 20 -46 4q-24 -12 -24 -40v-188h-324q-30 0 -70 -4t-120 -35t-134 -85q-90 -90 -90 -224v-12q0 -40 -24 -64q-34 -34 -97 -49t-107 -15h-208v736q0 30 22 52 t52 22h1678q28 0 50 -22t22 -52v-1696q0 -30 -22 -52t-50 -22h-1678q-30 0 -52 22t-22 52z" />
<glyph unicode="Z" d="M102 614q0 188 73 358t197 294t294 197t358 73t358 -73t294 -197t197 -294t73 -358t-73 -358t-197 -294t-294 -197t-358 -73t-358 73t-294 197t-197 294t-73 358zM525 463q9 -23 35 -23h928q16 0 26 12q6 4 8 12q4 8 4 15q0 13 -12 25l-464 464q-10 12 -26 12t-26 -12 l-464 -464q-12 -12 -12 -26q0 -7 3 -15z" />
<glyph unicode="^" d="M294 202q0 84 58 148q-46 58 -46 134q0 82 54 144t134 74q-8 30 -8 62q0 92 64 157t156 65h446v256q0 116 79 202t225 86q36 0 94 4q40 2 58 2q142 0 142 -146l4 -1308q0 -74 -51 -165t-143 -158t-186 -67q-72 0 -118 20q-38 -14 -76 -14h-474q-92 0 -156 65t-64 157 q0 32 8 62q-84 8 -142 71t-58 149zM434 201q0 -33 24 -56t56 -23h638h28q34 0 57 23t23 56t-23 56t-57 23h-28h-638q-32 0 -56 -23t-24 -56zM446 483q0 -33 24 -56t56 -23h626h42q32 0 55 23t23 56t-23 56t-55 23h-42h-626q-32 0 -56 -23t-24 -56zM626 -81q0 -33 23 -56 t57 -23h452h22q34 0 57 23t23 56t-23 56t-57 23h-28h-446q-34 0 -57 -23t-23 -56zM626 765q0 -33 23 -56t57 -23h446h28q34 0 57 23t23 56t-23 56t-57 23h-28h-446q-34 0 -57 -23t-23 -56zM1288 958q52 -28 83 -80t31 -114q0 -74 -46 -132q58 -64 58 -149t-58 -149 q46 -58 46 -132q0 -80 -52 -142q52 -62 52 -140q0 -48 -20 -92q82 4 160 96t78 158l-4 1306v12h-8q-14 0 -50 -2q-60 -2 -102 -2q-54 0 -91 -18t-52 -47t-20 -49t-5 -40v-284z" />
<glyph unicode="_" d="M102 614q0 188 73 358t197 294t294 197t358 73t358 -73t294 -197t197 -294t73 -358t-73 -358t-197 -294t-294 -197t-358 -73t-358 73t-294 197t-197 294t-73 358zM594 488h860v252h-860v-252z" />
<glyph unicode="a" d="M108 1098q-7 9 -7 19q0 11 9 22q16 21 40 13l620 -192q14 -4 22 -18l36 -64l22 26l1 3l1 3l202 354q10 19 30 19q4 0 8 -1l824 -152q18 -4 26 -21q4 -8 4 -15q0 -10 -6 -20l-220 -354v-578q0 -30 -28 -36l-778 -160h-8q-6 0 -14 2l-574 244q-22 10 -22 34v586zM226 1052 l136 -208q6 -10 6 -20v-574l542 -230l736 152v520l-698 -64v-492q0 -16 -11 -27t-26 -11t-26 11t-11 27v498l-388 112q-14 4 -22 18t-3 28t18 22t27 4l328 -96l-98 172zM942 918l724 -146l184 296l-744 138z" />
<glyph unicode="b" d="M108 311q-7 16 -7 31q0 29 25 54l1088 1088q25 25 60 25h3q37 -1 61 -27l584 -622q24 -26 24 -61t-26 -61l-994 -994q-26 -24 -58 -24q-30 0 -52 23t-22 55v466h-612q-54 0 -74 47zM336 406h512q36 0 61 -25t25 -61v-366l848 848l-508 542z" />
<glyph unicode="c" d="M102 1148q0 28 20 47t48 19h346l38 -126h1250l8 48q6 26 29 42t50 10t43 -29q12 -17 12 -35q0 -7 -2 -14l-78 -392v-6h-2l-56 -282l-1176 -74l-216 724h-246q-28 0 -48 20t-20 48zM590 970l52 -176h326v176h-378zM666 712l64 -214l238 14v200h-302zM774 144q0 54 38 92 t92 38t92 -38t38 -92t-38 -92t-92 -38t-92 38t-38 92zM1050 518l320 20v174h-320v-194zM1050 794h320v176h-320v-176zM1332 144q0 54 38 92t92 38t92 -38t38 -92t-38 -92t-92 -38t-92 38t-38 92zM1452 542l246 16l30 154h-276v-170zM1452 794h292l36 176h-328v-176z" />
<glyph unicode="d" d="M102 622q0 198 183 337t441 139t441 -139t183 -337t-183 -337t-441 -139q-10 -2 -112 -58q-182 -100 -242 -108h-3h-3q-30 0 -44 26q-18 28 6 56q68 82 92 144q-148 64 -233 174t-85 242zM202 622q0 -106 80 -198t212 -138q34 -13 34 -51.5t-28 -94.5q10 4 32 16t34 18 q128 72 160 72q216 0 370 110t154 266t-154 266t-370 110t-370 -110t-154 -266zM1098 1088q62 74 165 117t221 43q192 0 327 -103t135 -249q0 -96 -63 -178t-173 -128q18 -48 70 -108q16 -20 4 -42q-12 -18 -34 -18h-4q-46 6 -178 80q-74 40 -84 42q-30 0 -66 4q6 42 6 74 q40 -4 60 -4q24 0 120 -52q28 -16 48 -26q-22 44 -22 74q2 26 26 34q98 34 157 102t59 146q0 116 -114 197t-274 81q-98 0 -183 -33t-137 -89q-30 18 -66 36z" />
<glyph unicode="e" d="M156 -220v1506q0 36 26 61t62 25h280v-196q0 -44 32 -76t77 -32t77 32t32 76v196h564v-196q0 -44 32 -76t77 -32t77 32t32 76v196h280q36 0 62 -25t26 -61v-1506q0 -36 -26 -62t-62 -26h-1560q-36 0 -62 26t-26 62zM318 -58q0 -36 25 -61t61 -25h1218q36 0 62 25t26 61 v590v68v360h-1392v-360v-68v-590zM476 188l100 104q64 -64 132 -64q42 0 65 20t23 56q0 72 -82 72h-74v118h72q38 0 61 18t23 50q0 38 -26 58t-60 20q-60 0 -116 -60l-96 116q32 34 91 64t121 30q118 0 184 -56t66 -154q0 -68 -72 -124q92 -66 92 -162q0 -104 -82 -161 t-192 -57q-68 0 -134 34t-96 78zM590 1176v316q0 18 12 31t30 13t31 -13t13 -31v-316q0 -18 -13 -30t-31 -12t-30 12t-12 30zM1010 438q0 156 78 255t200 99q142 0 213 -96t71 -266q0 -166 -73 -259t-205 -93q-130 0 -207 92t-77 268zM1206 438q0 -90 27 -149t61 -59t57 56 t23 144t-25 146t-61 58q-30 0 -56 -56t-26 -140zM1372 1176v316q0 18 13 31t31 13t31 -13t13 -31v-316q0 -18 -13 -30t-31 -12t-31 12t-13 30z" />
<glyph unicode="f" d="M456 968q0 236 166 402t402 166t402 -166t166 -402q0 -146 -78 -282h2l-492 -994l-492 994h2q-78 136 -78 282zM786 1038q0 -98 69 -168t169 -70t169 70t69 168q0 100 -70 170t-168 70t-168 -70t-70 -170z" />
<glyph unicode="g" d="M102 246v110q0 20 15 35t35 15h60q20 90 72 170l-44 42q-14 14 -14 35t14 35l78 78q14 14 35 14t35 -14l42 -42q80 50 170 70v60q0 20 15 35t37 15h108q20 0 35 -15t15 -35v-60q90 -20 170 -72l42 44q14 14 35 14t37 -14l76 -78q14 -14 14 -35t-14 -35l-42 -42 q50 -80 70 -170h60q20 0 35 -15t15 -35v-110q0 -20 -15 -35t-35 -15h-60q-20 -90 -70 -170l42 -42q14 -14 14 -35t-14 -37l-76 -76q-16 -14 -37 -14t-35 14l-42 42q-80 -50 -170 -70v-60q0 -20 -15 -35t-35 -15h-108q-22 0 -37 15t-15 35v60q-90 20 -170 70l-42 -42 q-14 -14 -35 -14t-35 14l-78 76q-14 16 -14 37t14 35l44 42q-52 80 -72 170h-60q-20 0 -35 15t-15 35zM491 331q-3 -17 -3 -34q0 -69 44 -127q64 -84 172 -84q76 0 132 42q70 54 83 143q3 17 3 34q0 69 -44 127q-64 84 -174 84q-72 0 -130 -42q-70 -54 -83 -143zM1024 1204 l32 80q6 14 21 21t31 1l44 -18q40 62 100 104l-18 44q-6 16 0 31t20 21l80 34q14 8 30 2t22 -22l18 -44q39 9 78 9q34 0 68 -7l18 44q6 16 21 23q8 4 16 4q7 0 15 -3l80 -32q14 -6 21 -21t1 -31l-18 -44q62 -42 104 -102l44 20q16 6 31 0t21 -22l34 -78q6 -16 0 -31t-20 -21 l-44 -20q8 -39 8 -78q0 -34 -6 -68l44 -16q16 -6 22 -21q3 -8 3 -15.5t-3 -15.5l-30 -80q-6 -16 -22 -22t-30 0l-44 18q-42 -62 -102 -106l18 -44q8 -14 2 -29t-22 -23l-78 -34q-16 -6 -31 0t-23 22l-18 44q-41 -9 -83 -9q-31 0 -63 5l-16 -44q-6 -14 -22 -21q-9 -4 -17 -4 q-7 0 -13 3l-80 32q-16 6 -22 21t0 31l16 44q-60 40 -104 102l-44 -20q-14 -6 -30 0t-22 22l-34 78q-6 14 0 30t22 22l42 18q-8 40 -8 79q0 34 6 67l-44 18q-14 6 -21 21q-4 8 -4 16t3 15zM1318 1022q22 -82 102 -112q34 -13 68 -13q21 0 42 5q66 20 102 82q23 40 23 82 q0 24 -7 48q-22 80 -102 112q-31 13 -63 13l-45 -7q-68 -18 -103 -80q-23 -41 -23 -85q0 -22 6 -45z" />
<glyph unicode="h" d="M102 884q0 222 145 367t369 145q228 0 408 -208q176 208 408 208q238 0 376 -137t138 -375q0 -106 -48 -219t-118 -208t-169 -192t-181 -164t-172 -132t-127 -88t-61 -37q-22 -12 -47 -12t-47 12q-24 14 -60 37t-127 88t-173 132t-180 164t-168 192t-118 208t-48 219z M236 884q0 -82 38 -172t96 -169t139 -161t153 -144t153 -122t126 -90t83 -54q38 24 82 54t125 90t154 122t154 144t139 161t96 169t38 172q0 184 -98 282t-282 98q-58 0 -116 -23t-95 -50t-71 -63t-45 -51t-15 -23q-20 -34 -64 -34t-66 32q-4 8 -16 23t-46 51t-72 64t-95 51 t-115 23q-168 0 -274 -106t-106 -274z" />
<glyph unicode="i" d="M474 980q0 230 161 393t389 163t389 -162t161 -392q0 -176 -102 -330q-76 -128 -127 -250t-45 -158q3 -12 3 -23q0 -26 -17 -47q-28 -36 -62 -36h-396q-34 0 -62 36q-17 21 -17 46q0 10 3 22q6 36 -46 158t-128 250q-104 158 -104 330zM630 982q0 -126 78 -246q2 0 2 -3 v-3q164 -276 192 -434h248q26 158 188 434q2 0 2 2t2 2q76 116 76 248q0 164 -115 281t-279 117t-279 -117t-115 -281zM802 -74q0 38 20 92t46 64q66 22 165 22t165 -22q26 -10 46 -64t20 -91t-20 -92t-44 -63q-64 -24 -64 -31t-31 -28t-78 -21t-79 21t-32 29q0 2 -19 11 t-42 24t-29 25q-24 46 -24 124zM1024 1239q-3 9 -3 19q0 15 7 30q12 24 39 31q9 2 18 2q17 0 33 -9q68 -36 117 -84t72 -87t36 -82t15 -59t2 -28q0 -24 -17 -32t-51 -8q-32 0 -49 7t-17 33q0 8 -1 19t-11 40t-26 56t-51 60t-81 57q-24 12 -32 35z" />
<glyph unicode="k" d="M102 -10v1120q0 96 148 142t346 46q300 0 428 -86q58 38 156 60v-132q-76 -22 -92 -38v-1038q182 26 364.5 26t365.5 -26v1038q-18 18 -86 36v132q214 -50 214 -160v-1120q0 -30 -24 -50q-16 -14 -40 -14h-12q-194 34 -418 34t-418 -34h-10h-2h-4h-4q-194 34 -418 34 t-418 -34q-6 -1 -13 -1q-21 0 -39 15q-24 20 -24 50zM230 64q170 24 366 24q192 0 364 -24v1038q-24 24 -123 46t-241 22t-242 -22t-124 -46v-1038zM346 330q0 26 26 26h434q24 0 24 -26t-24 -26h-434q-26 0 -26 26zM348 526q0 26 26 26h434q24 0 24 -26t-24 -26h-434 q-26 0 -26 26zM348 720q0 26 26 26h434q24 0 24 -26t-24 -26h-434q-26 0 -26 26zM348 916q0 26 26 26h434q24 0 24 -26t-24 -26h-434q-26 0 -26 26zM1252 274v782v130v90q0 18 18 26h2h4l4 2h342q12 0 20 -8t8 -20v-90v-130v-782q0 -14 -8 -20q0 -2 -10 -6q-2 -2 -8 -2h-2 h-2h-2l-4 2l-4 2l-4 2l-4 2l-152 154l-152 -154q-2 0 -4 -2t-4 -2l-2 -2l-2 -2h-4h-2h-2q-4 0 -8 2q-18 8 -18 26z" />
<glyph unicode="l" d="M140 320q18 94 96 142l346 210q49 29 104 29q21 0 42 -4q78 -15 136 -75l-108 -66q-32 25 -64 25q-23 0 -46 -13l-346 -210q-36 -20 -43 -67q-1 -9 -1 -19q0 -37 22 -72l44 -72q28 -44 71 -59q18 -6 36 -6q23 0 43 11l346 212q42 26 42 82v10l110 68q12 -37 12 -74 q0 -39 -13 -77q-25 -75 -89 -113l-346 -210q-49 -30 -105 -30q-32 0 -66 10q-93 28 -145 114l-44 72q-39 65 -39 134q0 24 5 48zM657 436q5 26 25 40l554 336q20 14 46 6t40 -34q16 -26 11 -52t-25 -40l-552 -338q-13 -9 -28 -9q-9 0 -19 4q-25 9 -41 35q-12 20 -12 40 q0 6 1 12zM1042 889q24 77 90 117l346 210q49 30 105 30q32 0 66 -10q93 -28 145 -114l44 -72q39 -65 39 -134q0 -24 -5 -47q-18 -93 -96 -141l-346 -212q-50 -29 -106 -29q-17 0 -35 3q-75 12 -133 68l108 68q31 -19 58 -19q23 0 44 13l346 210q36 20 43 67q1 9 1 19 q0 37 -22 72l-44 72q-28 44 -71 59q-18 6 -36 6q-23 0 -43 -11l-346 -212q-42 -25 -42 -81q0 -11 2 -23l-108 -64q-15 42 -15 84q0 35 11 71z" />
<glyph unicode="m" d="M102 -46q0 30 22 52t52 22h1696q30 0 52 -22t22 -52v-4q0 -30 -22 -52t-52 -22h-1696q-30 0 -52 22t-22 52v4zM304 240v284q0 38 26 64t64 26h154q38 0 64 -26t26 -64v-284q0 -38 -26 -64t-64 -26h-154q-38 0 -64 26t-26 64zM820 256v616q0 36 26 63t64 27h156 q38 0 63 -26t25 -64v-616q0 -38 -25 -64t-63 -26h-156q-38 0 -64 26t-26 64zM1358 240v1024q0 38 25 63t63 25h156q38 0 64 -25t26 -63v-1024q0 -38 -26 -64t-64 -26h-156q-38 0 -63 26t-25 64z" />
<glyph unicode="n" d="M102 614q0 188 73 358t197 294t294 197t358 73t358 -73t294 -197t197 -294t73 -358t-73 -358t-197 -294t-294 -197t-358 -73t-358 73t-294 197t-197 294t-73 358zM238 614q0 -212 104 -391t283 -285t389 -108q14 44 18 56t16 52t16 60t9 53t5 59t-6 52q-8 54 -31 83 t-73 47q-2 2 -14 6t-19 6t-16 7t-15 11t-10 14q-7 20 -7 38q0 49 57 78q-2 2 -8 6q-142 30 -340 136q-20 12 -96 62q-2 2 -12 8q-40 24 -38 28l6 -2q-46 12 -48 38q-2 12 1 41t-1 51t-22 34q-34 24 -90 52q-58 -142 -58 -292zM850 690q16 -28 31 -36t29 -4t38 -4q6 -2 12 -5 t11 -6t10 -8t8 -7t8 -9t6 -9t6 -10t6 -10t6 -11l5 -9q45 -8 45 -38q0 -7 -3 -16q10 -6 22 -10q14 -4 6 -14h28q40 0 68 -4q10 -2 6 -10q18 -4 20 -14q4 -22 60 -26q22 -2 45 -2q34 0 68 4q28 3 51 3t40 -3q24 -6 40 -39t28 -35q70 -14 72 -62v-12q0 -45 -26 -81 q-30 -41 -88 -88t-76 -67q-32 -34 -71 -67t-88 -71t-75 -60q238 54 405 236t199 424q-30 -14 -63 -18t-45 8q-22 26 -37 70t-19 73t-8 79q-5 67 -5 121q0 72 9 123q4 24 70 38q-46 78 -104 140q-44 -46 -154 -84q-146 -48 -232 -94q-86 -24 -106 -116q10 -20 18 -40 q-2 -24 -3 -29t-15 -29q-12 -24 -57 -37q-25 -7 -46 -7q-16 0 -29 4q-24 4 -46 14q-18 17 -33 17q-28 0 -47 -53z" />
<glyph unicode="p" d="M102 -56q22 298 54 336q52 60 174 174t164 114q12 0 30 8q168 -144 386 -144q212 0 374 136q58 -4 192 -64q-154 -38 -255 -164t-101 -290q0 -52 14 -106h-220h-56h-756zM394 1020q0 212 151 363t364 151t364 -151t151 -363t-151 -363t-364 -151t-364 151t-151 363z M468 1020q0 -182 130 -312t312 -130t311 130t129 312t-129 312t-311 130t-312 -130t-130 -312zM1232 50q0 148 104 253t252 105t253 -105t105 -253t-105 -252t-253 -104t-252 104t-104 252zM1282 50q0 -126 90 -216t217 -90t216 90t89 216q0 128 -89 218t-216 90t-217 -90 t-90 -218zM1432 0v138h304v-138h-304z" />
<glyph unicode="r" d="M184 966q-3 28 -3 54q0 116 59 184q56 66 166 90l-14 142h-2v32q0 28 20 48t48 20h1134q28 0 48 -20t20 -48v-32h-2l-16 -142q110 -24 166 -90q59 -69 59 -184q0 -26 -3 -54q-10 -82 -34 -142t-66 -98t-104 -54q-32 -10 -84 -10q0 -2 -1 -6t-1 -6q-36 -182 -187 -284 t-362 -102t-363 102t-186 284q0 2 -1 6t-3 6q-52 0 -84 10q-62 16 -104 54t-66 98t-34 142zM270 964q8 -60 24 -100t38 -66t48 -40t50 -20q12 -2 36 -4v7v7l-52 474q-34 -8 -54 -18q-38 -22 -60 -56t-29 -81q-4 -25 -4 -53q0 -24 3 -50zM526 1066l266 -180q23 -16 23 -38 q0 -8 -3 -18l-102 -314l276 198q15 10 30 10l30 -10l284 -192l-110 314q-3 10 -3 19q0 22 21 37l258 184l-322 -2q-38 0 -50 34l-114 328l-108 -330q-10 -36 -46 -36zM650 -287q-4 9 -4 17q0 12 8 22l152 192q12 14 30 14h76v238q58 -6 112 -6t112 6v-238h66q18 0 28 -12 l162 -192q16 -18 6 -40t-34 -22h-680q-24 0 -34 21zM1584 734q24 2 34 4q24 6 50 20t48 40t38 66t22 100q4 30 4 57q0 24 -3 46q-7 47 -29 81t-60 56q-20 10 -52 18l-52 -474v-7v-7z" />
<glyph unicode="s" d="M102 614q0 188 73 358t197 294t294 197t358 73t358 -73t294 -197t197 -294t73 -358q0 -174 -62 -331t-174 -283l-136 168q-8 10 -18 18l-50 62q-16 20 -41 22t-43 -12l-12 -10l-40 50q136 130 154 314q3 30 3 59q0 174 -113 314q-132 163 -341 185q-30 3 -58 3 q-174 0 -314 -114q-163 -133 -185 -341q-3 -30 -3 -59q0 -173 113 -313q132 -164 342 -186q28 -3 55 -3q141 0 265 79l42 -52l-10 -10q-20 -16 -23 -41t13 -43l50 -62q6 -12 16 -22l138 -172q-226 -142 -490 -142q-188 0 -358 73t-294 197t-197 294t-73 358zM686 700 q14 138 122 226q92 75 206 75q19 0 40 -2q138 -15 226 -123q76 -93 76 -209q0 -18 -2 -37q-14 -138 -122 -226q-92 -75 -206 -75q-19 0 -40 2q-138 15 -226 123q-76 93 -76 209q0 18 2 37z" />
<glyph unicode="t" d="M102 1384q58 56 125 81q58 22 95 22q6 0 12 -1l40 -4l1104 -154l56 60q14 16 45 38t77 47t92 41q39 13 78 13h15q47 -3 77 -33q28 -32 28 -75t-22 -91t-47 -88t-47 -66l-20 -26q-8 -8 -12 -14l-66 -60l152 -1104q2 -6 3 -16t-1 -41t-10 -62t-31 -73t-59 -78l-408 1044 l-426 -396l14 -416l-120 -120l-122 464q-18 10 -28 22q-12 10 -20 22l-458 122l120 120l404 -14l404 428z" />
<glyph unicode="u" d="M278 752v120q0 88 63 151t151 63h308q-24 8 -69 25t-72 27t-67 28t-62 34t-45 41t-30 51t-3 60t22 74q30 62 86 89q43 21 91 21q14 0 28 -2q63 -8 117 -44q38 -26 68 -60t67 -85t55 -73q68 -86 84 -114q6 132 52 196q48 68 133 91q32 9 63 9q50 0 96 -24q52 -30 70 -83 q10 -29 10 -58q0 -24 -7 -49q-15 -54 -53 -96q-28 -30 -62 -58h184q88 0 151 -63t63 -151v-120q0 -56 -28 -104v-742q0 -88 -63 -151t-151 -63h-1008q-88 0 -151 63t-63 151v742q-28 48 -28 104zM422 752q0 -22 14 -42q6 -8 10 -20h484v252h-438q-28 0 -49 -20t-21 -50v-120 zM450 -94q0 -30 21 -51t49 -21h410v768h-480v-696zM598 1398q-3 -18 -3 -34q0 -45 21 -74q22 -34 62 -59t69 -36t89 -28t82 -25q-10 16 -33 45t-29 37q-12 16 -37 52t-45 64t-42 50q-28 26 -62 48q-18 10 -32 10q-30 0 -40 -50zM1118 -166h410q28 0 49 21t21 51v696h-480 v-768zM1118 690h484q4 12 10 22q14 18 14 40v120q0 30 -21 50t-49 20h-438v-252zM1202 1086h42q96 60 110 134q3 18 3 34q0 33 -13 60q-10 18 -36 48q-19 21 -30 21q-5 0 -8 -3q-16 -16 -29 -40t-20 -43t-11 -54t-5 -51t-2 -58t-1 -48z" />
<glyph unicode="v" d="M294 1026q0 86 58 149t142 71q-8 30 -8 62q0 92 64 157t156 65h474l194 6q94 0 186 -67t143 -158t51 -165l-4 -1308q0 -146 -142 -146q-18 0 -58 2q-58 4 -92 4q-148 0 -227 86t-79 202v256h-446q-92 0 -156 65t-64 157q0 32 8 62q-80 12 -134 74t-54 144q0 76 46 134 q-58 64 -58 148zM434 1027q0 -33 24 -56t56 -23h328v-2h74q24 0 39 -18t15 -43t-15 -43t-39 -18h-178h-2h-210q-32 0 -56 -23t-24 -56t24 -56t56 -23h180h2h178q22 0 38 -18t16 -43t-16 -43t-38 -18h-44v-2h-136q-34 0 -57 -23t-23 -56t23 -56t57 -23h446h28q4 0 9 1t6 1h3 h2q36 0 59 -12t29 -29t6 -34t-2 -29l-4 -12v-284q0 -20 5 -40t20 -49t52 -47t91 -18q42 0 102 -2q36 -2 50 -2h8v12l4 1306q0 42 -40 106t-96 106q-18 16 -36 24l-606 6h-136q-34 0 -57 -23t-23 -56t23 -56t57 -23h136v-2q20 -2 35 -20t15 -41t-15 -41t-35 -20h-2h-2h-178 h-2h-2h-142q-32 0 -56 -23t-24 -56z" />
<glyph unicode="w" d="M102 -188v1236q0 34 25 57t59 23h590q52 0 86 -36l172 -178l-78 -74l-140 144v-234h44l-56 -52h-16q-12 0 -20 8t-8 18v298h-548v-1184h862v534l112 106v-666q0 -34 -25 -57t-59 -23h-916q-34 0 -59 23t-25 57zM370 93q0 15 14 15h518q16 0 16 -15t-16 -15h-518 q-14 0 -14 15zM370 93q0 15 14 15h518q16 0 16 -15t-16 -15h-518q-14 0 -14 15zM370 320q0 14 14 14h164l-18 -28h-146q-14 0 -14 14zM370 547q0 15 14 15h292l-18 -30h-274q-14 0 -14 15zM510 192l212 372q2 4 4 6l972 920q9 9 17 9l19 -11l204 -202q8 -8 8 -20t-8 -18 l-958 -914l-8 -4l-428 -176q-6 -2 -10 -2q-12 0 -20 8t-8 18q0 6 4 14zM662 350l64 -64l182 76l-154 152zM788 556l92 -92l902 900l-68 68zM908 436l48 -48l924 878l-70 72z" />
<glyph unicode="x" d="M102 614q0 188 73 358t197 294t294 197t358 73t358 -73t294 -197t197 -294t73 -358t-73 -358t-197 -294t-294 -197t-358 -73t-358 73t-294 197t-197 294t-73 358zM234 614q0 -214 106 -396t288 -287t396 -105t396 105t287 287t105 396t-105 396t-287 288t-396 106 t-396 -106t-288 -288t-106 -396zM572 340l272 274l-272 274l178 178l274 -272l274 272l178 -178l-274 -274l274 -274l-178 -178l-274 272l-274 -272z" />
<glyph unicode="y" d="M102 614q0 42 29 71t69 29h340q40 0 102 14t94 48q22 22 22 62v11q0 127 88 217q52 52 130 81t116 33t66 4h316v184q0 26 22 38q10 4 19 4q14 0 25 -10l390 -280q16 -14 16 -36q0 -20 -16 -34l-390 -282q-8 -8 -26 -8q-6 0 -18 6q-22 10 -22 36v184h-316q-112 0 -172 -60 q-30 -30 -30 -86v-452q0 -50 30 -84q60 -60 172 -60h316v182q0 28 22 39t44 -5l390 -280q16 -14 16 -36t-16 -36l-390 -282q-10 -8 -26 -8q-6 0 -18 4q-22 14 -22 40v182h-316q-28 0 -66 4t-116 33t-130 81q-88 90 -88 219v11q0 38 -24 62q-32 32 -91 47t-103 15h-340 q-42 0 -70 29t-28 69z" />
<glyph unicode="z" d="M102 614q0 188 73 358t197 294t294 197t358 73t358 -73t294 -197t197 -294t73 -358t-73 -358t-197 -294t-294 -197t-358 -73t-358 73t-294 197t-197 294t-73 358zM526 764q-4 -8 -4 -15q0 -13 12 -25l464 -464q10 -12 26 -12t26 12l464 464q12 12 12 26q0 7 -3 15 q-9 23 -35 23h-928q-16 0 -26 -12q-6 -4 -8 -12z" />
<glyph unicode="{" d="M230 -262l2 534q0 20 10 38l296 524q16 28 52 28h28h114h116v-90h-132h-80h-16l-278 -492q-2 -4 -2 -8l-4 -488h1374l-6 474l-4 8l-286 506h-10h-36h-168v90h186h38h18q36 0 52 -28l306 -540q10 -16 10 -36l8 -520q2 -20 -13 -33t-35 -13h-1492q-20 0 -35 13t-13 33z M436 240l224 476q6 14 20 14h154q14 0 14 -14v-38q0 -14 -14 -14h-112q-14 0 -20 -12l-164 -346q-6 -14 8 -14h328q14 0 26 10q64 46 132 46q22 0 55 -12t55 -24l22 -12q12 -8 26 -8h288q14 0 8 14l-164 346q-4 12 -18 12h-90q-14 0 -14 14v38q0 14 14 14h130q14 0 20 -14 l224 -476q6 -12 -8 -12h-414q-14 0 -20 4q-4 4 -16 12q-60 40 -98 40q-28 0 -52 -9t-36 -19l-10 -8l-14 -14q-6 -6 -12 -6h-9h-11h-444q-14 0 -8 12zM666 1030q-14 30 2 50l68 96l250 342q10 18 40 18q26 0 36 -18l248 -342l70 -96q16 -20 2 -50q-6 -12 -8 -12 q-12 -14 -34 -14h-206v-50v-94v-304q0 -44 -32 -77t-77 -33t-78 33t-33 77v304v94v50h-206q-20 0 -32 14q-6 2 -10 12z" />
<glyph unicode="}" d="M236 -264l4 530q0 20 8 38l296 520q14 26 48 28l2 -2l64 -88h-18h-16l-276 -488q-2 -4 -2 -8l-4 -484h1362l-8 470q0 4 -2 8l-284 502h-10h-10l64 86v2q24 -6 36 -26l304 -534q8 -18 10 -38l8 -514q0 -20 -14 -33t-36 -13h-1476q-22 0 -36 13t-14 31zM440 236l224 472 q6 12 20 12h4l46 -64h-10q-14 0 -20 -12l-162 -344q-6 -12 8 -12h326q14 0 24 8q64 46 132 46q22 0 55 -12t53 -24l22 -12q12 -6 26 -6h286q14 0 8 12l-162 344q-2 4 -8 8l44 62q4 -4 4 -6l224 -472q6 -12 -8 -12h-412q-14 0 -18 4t-16 12q-60 38 -98 38q-26 0 -51 -9 t-35 -17l-12 -10l-14 -14q-4 -4 -12 -4h-20h-440q-12 0 -8 12zM658 956q6 14 8 14q12 12 34 12h204v48v96v300q0 44 32 77t76 33t78 -34q32 -32 32 -76v-300v-96v-48h204q20 0 32 -12q6 -4 10 -14q14 -28 -2 -50l-68 -94l-246 -338q-10 -18 -40 -18q-26 0 -36 18l-248 338 l-68 94q-14 22 -2 50z" />
<glyph unicode="~" d="M102 632q0 42 30 72l820 820q30 30 72 30t72 -30l820 -820q30 -30 30 -72t-30 -72q-28 -28 -68 -29t-70 25v-804q0 -32 -22 -55t-54 -23h-1356q-32 0 -54 23t-22 55v804q-30 -26 -66 -26q-42 0 -72 30t-30 72zM422 -172h702v540h326v-540h176v878l-602 602l-602 -602 v-878zM666 166v202h204v-202h-204z" />
<glyph unicode="&#xaa;" d="M108 1098q-7 9 -7 19q0 11 9 22q16 21 40 13l620 -192q14 -4 22 -18l36 -64l22 26l1 3l1 3l202 354q10 19 30 19q4 0 8 -1l824 -152q18 -4 26 -21q4 -8 4 -15q0 -10 -6 -20l-220 -354v-578q0 -30 -28 -36l-778 -160h-8q-6 0 -14 2l-574 244q-22 10 -22 34v586zM226 1052 l136 -208q6 -10 6 -20v-574l542 -230l736 152v520l-698 -64v-492q0 -16 -11 -27t-26 -11t-26 11t-11 27v498l-388 112q-14 4 -22 18t-3 28t18 22t27 4l328 -96l-98 172zM942 918l724 -146l184 296l-744 138z" />
<glyph unicode="&#xad;" d="M102 614q0 188 73 358t197 294t294 197t358 73t358 -73t294 -197t197 -294t73 -358t-73 -358t-197 -294t-294 -197t-358 -73t-358 73t-294 197t-197 294t-73 358zM234 614q0 -214 106 -396t288 -287t396 -105t396 105t287 287t105 396t-105 396t-287 288t-396 106 t-396 -106t-288 -288t-106 -396zM590 494v252h862v-252h-862z" />
<glyph unicode="&#xb2;" d="M132 -202v1632q0 44 32 75t78 31h778q68 0 114 -48l382 -396q44 -46 44 -108v-144h-146v128h-378q-14 0 -25 10t-11 24v394h-722v-1564h1136v240h146v-274q0 -44 -32 -75t-78 -31h-1208q-46 0 -78 31t-32 75zM614 246v418q0 44 30 75t74 31h1094q44 0 74 -31t30 -75v-418 q0 -44 -30 -74t-74 -30h-1094q-44 0 -74 30t-30 74zM768 302h164v68h-30v78h38q58 0 96 27t38 75q0 50 -29 80t-111 30h-166v-68h28v-222h-28v-68zM922 504v88h24q48 0 48 -46q0 -42 -50 -42h-22zM1072 1036h298l-298 310v-310zM1094 302h154q94 0 145 48t51 136 q0 76 -52 125t-142 49h-156v-68h32v-222h-32v-68zM1250 370v222h20q38 0 57 -31t19 -75q0 -114 -76 -116h-20zM1462 302h190v68h-52v66h96v68h-96v88h76v-46h90v114h-304v-68h32v-222h-32v-68z" />
<glyph unicode="&#xb3;" d="M132 -202v1632q0 44 32 75t78 31h778q68 0 114 -48l382 -396q44 -46 44 -108v-144h-146v128h-378q-14 0 -25 10t-11 24v394h-722v-1564h1136v240h146v-274q0 -44 -32 -75t-78 -31h-1208q-46 0 -78 31t-32 75zM614 246v418q0 44 30 75t74 31h1094q44 0 74 -31t30 -75v-418 q0 -44 -30 -74t-74 -30h-1094q-44 0 -74 30t-30 74zM666 254h174q108 0 166 54t58 152q0 86 -59 142t-161 56h-178v-76h36v-252h-36v-76zM822 330v252h22q42 0 64 -35t22 -87q0 -58 -21 -94t-65 -36h-22zM822 330v252h22q42 0 64 -35t22 -87q0 -58 -21 -94t-65 -36h-22z M1072 1036h298l-298 310v-310zM1078 458q0 -106 56 -161t150 -55q98 0 151 56t53 156t-52 157t-156 57q-90 0 -146 -58t-56 -152zM1220 458q0 54 17 88t43 34q64 0 64 -126q0 -54 -16 -87t-44 -33t-46 34t-18 90zM1220 458q0 54 17 88t43 34q64 0 64 -126q0 -54 -16 -87 t-44 -33t-46 34t-18 90zM1506 452q0 -96 56 -152t148 -56q102 0 176 82l-68 74q-52 -58 -92 -58t-62 32t-22 78q0 48 19 81t49 33t45 -21t17 -51h104v164h-92l-14 -32q-28 38 -88 38q-64 0 -120 -59t-56 -153z" />
<glyph unicode="&#xb9;" d="M310 -202v1632q0 44 32 75t78 31h778q68 0 114 -48l382 -396q44 -46 44 -108v-1186q0 -44 -32 -75t-78 -31h-1208q-46 0 -78 31t-32 75zM456 -168h1136v1136h-378q-14 0 -25 10t-11 24v394h-722v-1564zM644 169q0 39 38 39h682q18 0 29 -10t11 -28q0 -40 -40 -40h-682 q-38 0 -38 39zM644 470q0 38 38 38h682q40 0 40 -38q0 -18 -11 -28t-29 -10h-682q-38 0 -38 38zM644 768q0 38 38 38h682q40 0 40 -38t-40 -38h-682q-38 0 -38 38zM1250 1036h298l-298 310v-310z" />
<glyph unicode="&#xc2;" d="M-788 2168q0 84 58 148q-46 58 -46 134q0 82 54 144t134 74q-8 30 -8 62q0 92 64 157t156 65h446v256q0 116 79 202t225 86q36 0 94 4q40 2 58 2q142 0 142 -146l4 -1308q0 -74 -51 -165t-143 -158t-186 -67q-72 0 -118 20q-38 -14 -76 -14h-474q-92 0 -156 65t-64 157 q0 32 8 62q-84 8 -142 71t-58 149zM-648 2167q0 -33 24 -56t56 -23h638h28q34 0 57 23t23 56t-23 56t-57 23h-28h-638q-32 0 -56 -23t-24 -56zM-636 2449q0 -33 24 -56t56 -23h626h42q32 0 55 23t23 56t-23 56t-55 23h-42h-626q-32 0 -56 -23t-24 -56zM-456 1885 q0 -33 23 -56t57 -23h452h22q34 0 57 23t23 56t-23 56t-57 23h-28h-446q-34 0 -57 -23t-23 -56zM-456 2731q0 -33 23 -56t57 -23h446h28q34 0 57 23t23 56t-23 56t-57 23h-28h-446q-34 0 -57 -23t-23 -56zM206 2924q52 -28 83 -80t31 -114q0 -74 -46 -132q58 -64 58 -149 t-58 -149q46 -58 46 -132q0 -80 -52 -142q52 -62 52 -140q0 -48 -20 -92q82 4 160 96t78 158l-4 1306v12h-8q-14 0 -50 -2q-60 -2 -102 -2q-54 0 -91 -18t-52 -47t-20 -49t-5 -40v-284zM356 -46q-12 49 -12 95q0 90 46 171l46 88l88 -52l-46 -84q-34 -59 -34 -123 q0 -33 9 -68q27 -101 115 -153q20 -10 38 -16q45 -18 90 -18q41 0 81 15q85 31 133 111l660 1132q34 58 34 122q0 34 -10 69q-28 101 -118 153q-58 37 -138 37q-32 0 -67 -6q-123 -21 -175 -109l-420 -726q-23 -40 -23 -82q0 -21 6 -43q17 -65 77 -99q40 -23 82 -23 q21 0 43 6q65 17 99 75l270 464l86 -52l-266 -462q-50 -84 -142 -116q-45 -16 -89 -16l-95 18q-14 4 -38 18q-98 56 -124 162q-10 37 -10 72q0 68 36 130l422 726q64 108 200 148q60 18 120 18q74 0 146 -28q8 -2 17 -7t19 -11t16 -8q126 -74 164 -215q13 -48 13 -94 q0 -90 -49 -173l-656 -1132q-66 -114 -188 -156q-58 -20 -116 -20q-63 0 -126 24q-16 6 -52 24q-126 76 -162 214z" />
<glyph unicode="&#xc3;" d="M-568 2616q0 42 30 72l820 820q30 30 72 30t72 -30l820 -820q30 -30 30 -72t-30 -72q-28 -28 -68 -29t-70 25v-804q0 -32 -22 -55t-54 -23h-1356q-32 0 -54 23t-22 55v804q-30 -26 -66 -26q-42 0 -72 30t-30 72zM-248 1812h702v540h326v-540h176v878l-602 602l-602 -602 v-878zM-4 2150v202h204v-202h-204zM356 -46q-12 49 -12 95q0 90 46 171l46 88l88 -52l-46 -84q-34 -59 -34 -123q0 -33 9 -68q27 -101 115 -153q20 -10 38 -16q45 -18 90 -18q41 0 81 15q85 31 133 111l660 1132q34 58 34 122q0 34 -10 69q-28 101 -118 153q-58 37 -138 37 q-32 0 -67 -6q-123 -21 -175 -109l-420 -726q-23 -40 -23 -82q0 -21 6 -43q17 -65 77 -99q40 -23 82 -23q21 0 43 6q65 17 99 75l270 464l86 -52l-266 -462q-50 -84 -142 -116q-45 -16 -89 -16l-95 18q-14 4 -38 18q-98 56 -124 162q-10 37 -10 72q0 68 36 130l422 726 q64 108 200 148q60 18 120 18q74 0 146 -28q8 -2 17 -7t19 -11t16 -8q126 -74 164 -215q13 -48 13 -94q0 -90 -49 -173l-656 -1132q-66 -114 -188 -156q-58 -20 -116 -20q-63 0 -126 24q-16 6 -52 24q-126 76 -162 214z" />
<glyph unicode="&#xce;" d="M-1192 2166q0 84 58 148q-46 58 -46 134q0 82 54 144t134 74q-8 30 -8 62q0 92 64 157t156 65h446v256q0 116 79 202t225 86q36 0 94 4q40 2 58 2q142 0 142 -146l4 -1308q0 -74 -51 -165t-143 -158t-186 -67q-72 0 -118 20q-38 -14 -76 -14h-474q-92 0 -156 65t-64 157 q0 32 8 62q-84 8 -142 71t-58 149zM-1052 2165q0 -33 24 -56t56 -23h638h28q34 0 57 23t23 56t-23 56t-57 23h-28h-638q-32 0 -56 -23t-24 -56zM-1040 2447q0 -33 24 -56t56 -23h626h42q32 0 55 23t23 56t-23 56t-55 23h-42h-626q-32 0 -56 -23t-24 -56zM-860 1883 q0 -33 23 -56t57 -23h452h22q34 0 57 23t23 56t-23 56t-57 23h-28h-446q-34 0 -57 -23t-23 -56zM-860 2729q0 -33 23 -56t57 -23h446h28q34 0 57 23t23 56t-23 56t-57 23h-28h-446q-34 0 -57 -23t-23 -56zM-198 2922q52 -28 83 -80t31 -114q0 -74 -46 -132q58 -64 58 -149 t-58 -149q46 -58 46 -132q0 -80 -52 -142q52 -62 52 -140q0 -48 -20 -92q82 4 160 96t78 158l-4 1306v12h-8q-14 0 -50 -2q-60 -2 -102 -2q-54 0 -91 -18t-52 -47t-20 -49t-5 -40v-284zM104 868q-1 6 -1 11q0 13 7 23q16 18 30 20l256 42q0 -14 2 -24q2 -6 3 -21t1 -20 t2 -13t4 -10l-250 -46h-10q-40 0 -44 38zM142 1296q-1 6 -1 10q0 14 9 22q10 16 29 20t35 -8l208 -146q0 -6 -4 -14t-4 -12q-8 -26 -10 -42q-2 -6 -2 -15t-2 -13l-3 2q-3 2 -5 4l-230 162q-16 12 -20 30zM254 490q-1 5 -1 10q0 14 9 24l162 230q4 6 14 14q2 -4 5 -14t5 -12 q4 -10 10 -24t8 -18q2 -6 7 -14t7 -12l-144 -202q-14 -18 -28 -20h-10q-12 0 -26 8q-14 14 -18 30zM544 944q0 206 145 352t350 146t350 -145t145 -351q0 -160 -92 -298q-68 -116 -115 -225t-41 -141q3 -11 3 -22q0 -23 -15 -42q-24 -32 -56 -32h-356q-30 0 -54 32 q-16 21 -16 44q0 4 1.5 12.5t1.5 13.5q0 35 -42 133q-47 111 -115 225q-94 142 -94 298zM684 944q0 -114 72 -220l1 -3l1 -3q146 -248 170 -388h224q24 140 170 388l1 2l1 2q70 104 70 222q0 148 -104 253t-251 105t-251 -105t-104 -253zM838 -4q0 32 19 82t41 58 q60 20 149 20t149 -20q22 -8 41 -58t19 -83t-18 -82t-40 -57q-58 -20 -58 -26t-28 -25t-70 -19t-71 19t-29 25q0 2 -18 10t-38 21t-24 23q-24 42 -24 112zM1039 1176q-3 8 -3 17q0 13 6 27q12 20 36 27t46 -5q60 -32 105 -76t65 -79t32 -73t13 -53t1 -25q0 -38 -60 -38 q-30 0 -45 7t-15 31q0 6 -1 16t-10 36t-23 50t-45 54t-73 52q-22 12 -29 32zM1566 680q2 4 4 12q4 10 6 14l18 38q2 6 4 14t4 12q18 -6 22 -16l162 -230q12 -14 8 -34q-4 -16 -18 -30q-14 -8 -26 -8h-4h-4q-16 4 -30 20zM1620 1190l214 150q12 9 26 9q5 0 9 -1q19 -4 29 -20 q12 -12 8 -32q-4 -18 -18 -30l-232 -162q-6 -4 -16 -8q0 4 -1 13t-3 13q-2 14 -10 40q-2 4 -4 13t-2 15zM1632 878q2 2 2 11t2 13l6 38v14q2 6 2 12l264 -44q16 -4 30 -18q7 -10 7 -24q0 -6 -1 -12q-4 -38 -44 -38h-10z" />
<glyph unicode="&#xd4;" d="M-876 2166q0 84 58 148q-46 58 -46 134q0 82 54 144t134 74q-8 30 -8 62q0 92 64 157t156 65h446v256q0 116 79 202t225 86q36 0 94 4q40 2 58 2q142 0 142 -146l4 -1308q0 -74 -51 -165t-143 -158t-186 -67q-72 0 -118 20q-38 -14 -76 -14h-474q-92 0 -156 65t-64 157 q0 32 8 62q-84 8 -142 71t-58 149zM-736 2165q0 -33 24 -56t56 -23h638h28q34 0 57 23t23 56t-23 56t-57 23h-28h-638q-32 0 -56 -23t-24 -56zM-724 2447q0 -33 24 -56t56 -23h626h42q32 0 55 23t23 56t-23 56t-55 23h-42h-626q-32 0 -56 -23t-24 -56zM-544 1883 q0 -33 23 -56t57 -23h452h22q34 0 57 23t23 56t-23 56t-57 23h-28h-446q-34 0 -57 -23t-23 -56zM-544 2729q0 -33 23 -56t57 -23h446h28q34 0 57 23t23 56t-23 56t-57 23h-28h-446q-34 0 -57 -23t-23 -56zM118 2922q52 -28 83 -80t31 -114q0 -74 -46 -132q58 -64 58 -149 t-58 -149q46 -58 46 -132q0 -80 -52 -142q52 -62 52 -140q0 -48 -20 -92q82 4 160 96t78 158l-4 1306v12h-8q-14 0 -50 -2q-60 -2 -102 -2q-54 0 -91 -18t-52 -47t-20 -49t-5 -40v-284zM144 1280q-1 8 -1 15q0 39 26 73q31 40 81 46l976 120q8 1 16 1q40 0 73 -25 q39 -30 46 -80q1 -9 1 -18q0 -39 -25 -72q-31 -40 -81 -46l-20 -2v-266l592 -74q36 -4 58 -33q19 -25 19 -54q0 -5 -1 -11q-4 -28 -22 -48t-44 -26v-1042q0 -18 -13 -31t-31 -13h-602v-2h-16h-60h-822q-24 0 -42 18t-18 42v1426q-36 8 -61 36t-29 66zM354 -186h268v330h216 v-330h278v1226v90h-2v148l-572 -72l-188 -26v-1366zM622 228v218h216v-218h-216zM622 528v218h216v-218h-216zM622 830v218h216v-218h-216zM1236 -218h160v242h160v-242h194v1000l-136 18l-378 48v-1066zM1396 86v158h160v-158h-160zM1396 306v158h160v-158h-160zM1396 526 v158h160v-158h-160z" />
<glyph unicode="&#xd5;" d="M-656 2616q0 42 30 72l820 820q30 30 72 30t72 -30l820 -820q30 -30 30 -72t-30 -72q-28 -28 -68 -29t-70 25v-804q0 -32 -22 -55t-54 -23h-1356q-32 0 -54 23t-22 55v804q-30 -26 -66 -26q-42 0 -72 30t-30 72zM-336 1812h702v540h326v-540h176v878l-602 602l-602 -602 v-878zM-92 2150v202h204v-202h-204zM144 1280q-1 8 -1 15q0 39 26 73q31 40 81 46l976 120q8 1 16 1q40 0 73 -25q39 -30 46 -80q1 -9 1 -18q0 -39 -25 -72q-31 -40 -81 -46l-20 -2v-266l592 -74q36 -4 58 -33q19 -25 19 -54q0 -5 -1 -11q-4 -28 -22 -48t-44 -26v-1042 q0 -18 -13 -31t-31 -13h-602v-2h-16h-60h-822q-24 0 -42 18t-18 42v1426q-36 8 -61 36t-29 66zM354 -186h268v330h216v-330h278v1226v90h-2v148l-572 -72l-188 -26v-1366zM622 228v218h216v-218h-216zM622 528v218h216v-218h-216zM622 830v218h216v-218h-216zM1236 -218h160 v242h160v-242h194v1000l-136 18l-378 48v-1066zM1396 86v158h160v-158h-160zM1396 306v158h160v-158h-160zM1396 526v158h160v-158h-160z" />
<glyph unicode="&#xdb;" d="M-1262 2166q0 84 58 148q-46 58 -46 134q0 82 54 144t134 74q-8 30 -8 62q0 92 64 157t156 65h446v256q0 116 79 202t225 86q36 0 94 4q40 2 58 2q142 0 142 -146l4 -1308q0 -74 -51 -165t-143 -158t-186 -67q-72 0 -118 20q-38 -14 -76 -14h-474q-92 0 -156 65t-64 157 q0 32 8 62q-84 8 -142 71t-58 149zM-1122 2165q0 -33 24 -56t56 -23h638h28q34 0 57 23t23 56t-23 56t-57 23h-28h-638q-32 0 -56 -23t-24 -56zM-1110 2447q0 -33 24 -56t56 -23h626h42q32 0 55 23t23 56t-23 56t-55 23h-42h-626q-32 0 -56 -23t-24 -56zM-930 1883 q0 -33 23 -56t57 -23h452h22q34 0 57 23t23 56t-23 56t-57 23h-28h-446q-34 0 -57 -23t-23 -56zM-930 2729q0 -33 23 -56t57 -23h446h28q34 0 57 23t23 56t-23 56t-57 23h-28h-446q-34 0 -57 -23t-23 -56zM-268 2922q52 -28 83 -80t31 -114q0 -74 -46 -132q58 -64 58 -149 t-58 -149q46 -58 46 -132q0 -80 -52 -142q52 -62 52 -140q0 -48 -20 -92q82 4 160 96t78 158l-4 1306v12h-8q-14 0 -50 -2q-60 -2 -102 -2q-54 0 -91 -18t-52 -47t-20 -49t-5 -40v-284zM102 -42v1312q0 52 38 90t92 38h1584q54 0 92 -38t38 -90v-1312q0 -52 -38 -90t-92 -38 h-260h-72v172q0 38 -22 66t-51 28t-50 -28t-21 -66v-172h-72h-488h-72v172q0 38 -21 66t-50 28t-51 -28t-22 -66v-172h-72h-226h-34q-54 0 -92 38t-38 90zM218 -42q0 -14 14 -14h260v58q0 70 43 118t102 48t101 -48t42 -118v-58h488v58q0 70 42 118t101 48t102 -48t43 -118 v-58h260q14 0 14 14v1312q0 14 -14 14h-1584q-14 0 -14 -14v-1312zM440 412q10 100 24 116q12 14 70 39t80 25q18 0 39 21t29 39q4 8 -12 46t-14 44l-7 -2q-7 -2 -9 -2q-10 0 -10 14l-8 36q-6 22 -6 34q2 20 12 20q4 0 2 22l-2 24q-4 26 -4 45q0 51 26 61q2 12 7 18t15 12 t14 10q0 4 11 9t32 11t43 8h4h6h2h2h2h2h2h4h6q20 -2 41 -8t33 -11t12 -9q4 -4 13 -10t14 -12t9 -18q16 -6 22 -33t2 -51l-2 -22q-8 -46 0 -46q10 0 12 -20l-8 -34q-6 -28 -6 -36q0 -14 -12 -14q-2 0 -8 2t-8 2q2 -6 -13 -44t-11 -46q8 -18 29 -39t39 -21q22 0 80 -25 t70 -39q6 -8 12 -36t8 -54l2 -26h-334h-24h-334zM774 412zM798 412zM1164 686q0 10 7 17t17 7h446q10 0 17 -7t7 -17t-7 -18t-17 -8h-446q-10 0 -17 8t-7 18zM1164 875q0 11 7 17t17 6h446q10 0 17 -6t7 -17t-7 -17t-17 -6h-446q-10 0 -17 6t-7 17z" />
<glyph unicode="&#xe2;" d="M-1034 1914q0 84 58 148q-46 58 -46 134q0 82 54 144t134 74q-8 30 -8 62q0 92 64 157t156 65h446v256q0 116 79 202t225 86q36 0 94 4q40 2 58 2q142 0 142 -146l4 -1308q0 -74 -51 -165t-143 -158t-186 -67q-72 0 -118 20q-38 -14 -76 -14h-474q-92 0 -156 65t-64 157 q0 32 8 62q-84 8 -142 71t-58 149zM-894 1913q0 -33 24 -56t56 -23h638h28q34 0 57 23t23 56t-23 56t-57 23h-28h-638q-32 0 -56 -23t-24 -56zM-882 2195q0 -33 24 -56t56 -23h626h42q32 0 55 23t23 56t-23 56t-55 23h-42h-626q-32 0 -56 -23t-24 -56zM-702 1631 q0 -33 23 -56t57 -23h452h22q34 0 57 23t23 56t-23 56t-57 23h-28h-446q-34 0 -57 -23t-23 -56zM-702 2477q0 -33 23 -56t57 -23h446h28q34 0 57 23t23 56t-23 56t-57 23h-28h-446q-34 0 -57 -23t-23 -56zM-40 2670q52 -28 83 -80t31 -114q0 -74 -46 -132q58 -64 58 -149 t-58 -149q46 -58 46 -132q0 -80 -52 -142q52 -62 52 -140q0 -48 -20 -92q82 4 160 96t78 158l-4 1306v12h-8q-14 0 -50 -2q-60 -2 -102 -2q-54 0 -91 -18t-52 -47t-20 -49t-5 -40v-284zM108 1098q-7 9 -7 19q0 11 9 22q16 21 40 13l620 -192q14 -4 22 -18l36 -64l22 26l1 3 l1 3l202 354q10 19 30 19q4 0 8 -1l824 -152q18 -4 26 -21q4 -8 4 -15q0 -10 -6 -20l-220 -354v-578q0 -30 -28 -36l-778 -160h-8q-6 0 -14 2l-574 244q-22 10 -22 34v586zM226 1052l136 -208q6 -10 6 -20v-574l542 -230l736 152v520l-698 -64v-492q0 -16 -11 -27t-26 -11 t-26 11t-11 27v498l-388 112q-14 4 -22 18t-3 28t18 22t27 4l328 -96l-98 172zM942 918l724 -146l184 296l-744 138z" />
<glyph unicode="&#xe3;" d="M-814 2362q0 42 30 72l820 820q30 30 72 30t72 -30l820 -820q30 -30 30 -72t-30 -72q-28 -28 -68 -29t-70 25v-804q0 -32 -22 -55t-54 -23h-1356q-32 0 -54 23t-22 55v804q-30 -26 -66 -26q-42 0 -72 30t-30 72zM-494 1558h702v540h326v-540h176v878l-602 602l-602 -602 v-878zM-250 1896v202h204v-202h-204zM108 1098q-7 9 -7 19q0 11 9 22q16 21 40 13l620 -192q14 -4 22 -18l36 -64l22 26l1 3l1 3l202 354q10 19 30 19q4 0 8 -1l824 -152q18 -4 26 -21q4 -8 4 -15q0 -10 -6 -20l-220 -354v-578q0 -30 -28 -36l-778 -160h-8q-6 0 -14 2 l-574 244q-22 10 -22 34v586zM226 1052l136 -208q6 -10 6 -20v-574l542 -230l736 152v520l-698 -64v-492q0 -16 -11 -27t-26 -11t-26 11t-11 27v498l-388 112q-14 4 -22 18t-3 28t18 22t27 4l328 -96l-98 172zM942 918l724 -146l184 296l-744 138z" />
<glyph unicode="&#xea;" d="M-1094 2168q0 84 58 148q-46 58 -46 134q0 82 54 144t134 74q-8 30 -8 62q0 92 64 157t156 65h446v256q0 116 79 202t225 86q36 0 94 4q40 2 58 2q142 0 142 -146l4 -1308q0 -74 -51 -165t-143 -158t-186 -67q-72 0 -118 20q-38 -14 -76 -14h-474q-92 0 -156 65t-64 157 q0 32 8 62q-84 8 -142 71t-58 149zM-954 2167q0 -33 24 -56t56 -23h638h28q34 0 57 23t23 56t-23 56t-57 23h-28h-638q-32 0 -56 -23t-24 -56zM-942 2449q0 -33 24 -56t56 -23h626h42q32 0 55 23t23 56t-23 56t-55 23h-42h-626q-32 0 -56 -23t-24 -56zM-762 1885 q0 -33 23 -56t57 -23h452h22q34 0 57 23t23 56t-23 56t-57 23h-28h-446q-34 0 -57 -23t-23 -56zM-762 2731q0 -33 23 -56t57 -23h446h28q34 0 57 23t23 56t-23 56t-57 23h-28h-446q-34 0 -57 -23t-23 -56zM-100 2924q52 -28 83 -80t31 -114q0 -74 -46 -132q58 -64 58 -149 t-58 -149q46 -58 46 -132q0 -80 -52 -142q52 -62 52 -140q0 -48 -20 -92q82 4 160 96t78 158l-4 1306v12h-8q-14 0 -50 -2q-60 -2 -102 -2q-54 0 -91 -18t-52 -47t-20 -49t-5 -40v-284zM156 -220v1506q0 36 26 61t62 25h280v-196q0 -44 32 -76t77 -32t77 32t32 76v196h564 v-196q0 -44 32 -76t77 -32t77 32t32 76v196h280q36 0 62 -25t26 -61v-1506q0 -36 -26 -62t-62 -26h-1560q-36 0 -62 26t-26 62zM318 -58q0 -36 25 -61t61 -25h1218q36 0 62 25t26 61v590v68v360h-1392v-360v-68v-590zM476 188l100 104q64 -64 132 -64q42 0 65 20t23 56 q0 72 -82 72h-74v118h72q38 0 61 18t23 50q0 38 -26 58t-60 20q-60 0 -116 -60l-96 116q32 34 91 64t121 30q118 0 184 -56t66 -154q0 -68 -72 -124q92 -66 92 -162q0 -104 -82 -161t-192 -57q-68 0 -134 34t-96 78zM590 1176v316q0 18 12 31t30 13t31 -13t13 -31v-316 q0 -18 -13 -30t-31 -12t-30 12t-12 30zM1010 438q0 156 78 255t200 99q142 0 213 -96t71 -266q0 -166 -73 -259t-205 -93q-130 0 -207 92t-77 268zM1206 438q0 -90 27 -149t61 -59t57 56t23 144t-25 146t-61 58q-30 0 -56 -56t-26 -140zM1372 1176v316q0 18 13 31t31 13 t31 -13t13 -31v-316q0 -18 -13 -30t-31 -12t-31 12t-13 30z" />
<glyph unicode="&#xee;" d="M-1094 2168q0 84 58 148q-46 58 -46 134q0 82 54 144t134 74q-8 30 -8 62q0 92 64 157t156 65h446v256q0 116 79 202t225 86q36 0 94 4q40 2 58 2q142 0 142 -146l4 -1308q0 -74 -51 -165t-143 -158t-186 -67q-72 0 -118 20q-38 -14 -76 -14h-474q-92 0 -156 65t-64 157 q0 32 8 62q-84 8 -142 71t-58 149zM-954 2167q0 -33 24 -56t56 -23h638h28q34 0 57 23t23 56t-23 56t-57 23h-28h-638q-32 0 -56 -23t-24 -56zM-942 2449q0 -33 24 -56t56 -23h626h42q32 0 55 23t23 56t-23 56t-55 23h-42h-626q-32 0 -56 -23t-24 -56zM-762 1885 q0 -33 23 -56t57 -23h452h22q34 0 57 23t23 56t-23 56t-57 23h-28h-446q-34 0 -57 -23t-23 -56zM-762 2731q0 -33 23 -56t57 -23h446h28q34 0 57 23t23 56t-23 56t-57 23h-28h-446q-34 0 -57 -23t-23 -56zM-100 2924q52 -28 83 -80t31 -114q0 -74 -46 -132q58 -64 58 -149 t-58 -149q46 -58 46 -132q0 -80 -52 -142q52 -62 52 -140q0 -48 -20 -92q82 4 160 96t78 158l-4 1306v12h-8q-14 0 -50 -2q-60 -2 -102 -2q-54 0 -91 -18t-52 -47t-20 -49t-5 -40v-284zM474 980q0 230 161 393t389 163t389 -162t161 -392q0 -176 -102 -330 q-76 -128 -127 -250t-45 -158q3 -12 3 -23q0 -26 -17 -47q-28 -36 -62 -36h-396q-34 0 -62 36q-17 21 -17 46q0 10 3 22q6 36 -46 158t-128 250q-104 158 -104 330zM630 982q0 -126 78 -246q2 0 2 -3v-3q164 -276 192 -434h248q26 158 188 434q2 0 2 2t2 2q76 116 76 248 q0 164 -115 281t-279 117t-279 -117t-115 -281zM802 -74q0 38 20 92t46 64q66 22 165 22t165 -22q26 -10 46 -64t20 -91t-20 -92t-44 -63q-64 -24 -64 -31t-31 -28t-78 -21t-79 21t-32 29q0 2 -19 11t-42 24t-29 25q-24 46 -24 124zM1024 1239q-3 9 -3 19q0 15 7 30 q12 24 39 31q9 2 18 2q17 0 33 -9q68 -36 117 -84t72 -87t36 -82t15 -59t2 -28q0 -24 -17 -32t-51 -8q-32 0 -49 7t-17 33q0 8 -1 19t-11 40t-26 56t-51 60t-81 57q-24 12 -32 35z" />
<glyph unicode="&#xf1;" d="M-2010 2616q0 42 30 72l820 820q30 30 72 30t72 -30l820 -820q30 -30 30 -72t-30 -72q-28 -28 -68 -29t-70 25v-804q0 -32 -22 -55t-54 -23h-1356q-32 0 -54 23t-22 55v804q-30 -26 -66 -26q-42 0 -72 30t-30 72zM-1690 1812h702v540h326v-540h176v878l-602 602 l-602 -602v-878zM-1446 2150v202h204v-202h-204zM102 614q0 188 73 358t197 294t294 197t358 73t358 -73t294 -197t197 -294t73 -358t-73 -358t-197 -294t-294 -197t-358 -73t-358 73t-294 197t-197 294t-73 358zM238 614q0 -212 104 -391t283 -285t389 -108q14 44 18 56 t16 52t16 60t9 53t5 59t-6 52q-8 54 -31 83t-73 47q-2 2 -14 6t-19 6t-16 7t-15 11t-10 14q-7 20 -7 38q0 49 57 78q-2 2 -8 6q-142 30 -340 136q-20 12 -96 62q-2 2 -12 8q-40 24 -38 28l6 -2q-46 12 -48 38q-2 12 1 41t-1 51t-22 34q-34 24 -90 52q-58 -142 -58 -292z M850 690q16 -28 31 -36t29 -4t38 -4q6 -2 12 -5t11 -6t10 -8t8 -7t8 -9t6 -9t6 -10t6 -10t6 -11l5 -9q45 -8 45 -38q0 -7 -3 -16q10 -6 22 -10q14 -4 6 -14h28q40 0 68 -4q10 -2 6 -10q18 -4 20 -14q4 -22 60 -26q22 -2 45 -2q34 0 68 4q28 3 51 3t40 -3q24 -6 40 -39 t28 -35q70 -14 72 -62v-12q0 -45 -26 -81q-30 -41 -88 -88t-76 -67q-32 -34 -71 -67t-88 -71t-75 -60q238 54 405 236t199 424q-30 -14 -63 -18t-45 8q-22 26 -37 70t-19 73t-8 79q-5 67 -5 121q0 72 9 123q4 24 70 38q-46 78 -104 140q-44 -46 -154 -84q-146 -48 -232 -94 q-86 -24 -106 -116q10 -20 18 -40q-2 -24 -3 -29t-15 -29q-12 -24 -57 -37q-25 -7 -46 -7q-16 0 -29 4q-24 4 -46 14q-18 17 -33 17q-28 0 -47 -53z" />
<glyph unicode="&#xfb;" d="M-1466 2168q0 84 58 148q-46 58 -46 134q0 82 54 144t134 74q-8 30 -8 62q0 92 64 157t156 65h446v256q0 116 79 202t225 86q36 0 94 4q40 2 58 2q142 0 142 -146l4 -1308q0 -74 -51 -165t-143 -158t-186 -67q-72 0 -118 20q-38 -14 -76 -14h-474q-92 0 -156 65t-64 157 q0 32 8 62q-84 8 -142 71t-58 149zM-1326 2167q0 -33 24 -56t56 -23h638h28q34 0 57 23t23 56t-23 56t-57 23h-28h-638q-32 0 -56 -23t-24 -56zM-1314 2449q0 -33 24 -56t56 -23h626h42q32 0 55 23t23 56t-23 56t-55 23h-42h-626q-32 0 -56 -23t-24 -56zM-1134 1885 q0 -33 23 -56t57 -23h452h22q34 0 57 23t23 56t-23 56t-57 23h-28h-446q-34 0 -57 -23t-23 -56zM-1134 2731q0 -33 23 -56t57 -23h446h28q34 0 57 23t23 56t-23 56t-57 23h-28h-446q-34 0 -57 -23t-23 -56zM-472 2924q52 -28 83 -80t31 -114q0 -74 -46 -132q58 -64 58 -149 t-58 -149q46 -58 46 -132q0 -80 -52 -142q52 -62 52 -140q0 -48 -20 -92q82 4 160 96t78 158l-4 1306v12h-8q-14 0 -50 -2q-60 -2 -102 -2q-54 0 -91 -18t-52 -47t-20 -49t-5 -40v-284zM278 752v120q0 88 63 151t151 63h308q-24 8 -69 25t-72 27t-67 28t-62 34t-45 41 t-30 51t-3 60t22 74q30 62 86 89q43 21 91 21q14 0 28 -2q63 -8 117 -44q38 -26 68 -60t67 -85t55 -73q68 -86 84 -114q6 132 52 196q48 68 133 91q32 9 63 9q50 0 96 -24q52 -30 70 -83q10 -29 10 -58q0 -24 -7 -49q-15 -54 -53 -96q-28 -30 -62 -58h184q88 0 151 -63 t63 -151v-120q0 -56 -28 -104v-742q0 -88 -63 -151t-151 -63h-1008q-88 0 -151 63t-63 151v742q-28 48 -28 104zM422 752q0 -22 14 -42q6 -8 10 -20h484v252h-438q-28 0 -49 -20t-21 -50v-120zM450 -94q0 -30 21 -51t49 -21h410v768h-480v-696zM598 1398q-3 -18 -3 -34 q0 -45 21 -74q22 -34 62 -59t69 -36t89 -28t82 -25q-10 16 -33 45t-29 37q-12 16 -37 52t-45 64t-42 50q-28 26 -62 48q-18 10 -32 10q-30 0 -40 -50zM1118 -166h410q28 0 49 21t21 51v696h-480v-768zM1118 690h484q4 12 10 22q14 18 14 40v120q0 30 -21 50t-49 20h-438 v-252zM1202 1086h42q96 60 110 134q3 18 3 34q0 33 -13 60q-10 18 -36 48q-19 21 -30 21q-5 0 -8 -3q-16 -16 -29 -40t-20 -43t-11 -54t-5 -51t-2 -58t-1 -48z" />
<glyph unicode="&#x2c6;" d="M294 202q0 84 58 148q-46 58 -46 134q0 82 54 144t134 74q-8 30 -8 62q0 92 64 157t156 65h446v256q0 116 79 202t225 86q36 0 94 4q40 2 58 2q142 0 142 -146l4 -1308q0 -74 -51 -165t-143 -158t-186 -67q-72 0 -118 20q-38 -14 -76 -14h-474q-92 0 -156 65t-64 157 q0 32 8 62q-84 8 -142 71t-58 149zM434 201q0 -33 24 -56t56 -23h638h28q34 0 57 23t23 56t-23 56t-57 23h-28h-638q-32 0 -56 -23t-24 -56zM446 483q0 -33 24 -56t56 -23h626h42q32 0 55 23t23 56t-23 56t-55 23h-42h-626q-32 0 -56 -23t-24 -56zM626 -81q0 -33 23 -56 t57 -23h452h22q34 0 57 23t23 56t-23 56t-57 23h-28h-446q-34 0 -57 -23t-23 -56zM626 765q0 -33 23 -56t57 -23h446h28q34 0 57 23t23 56t-23 56t-57 23h-28h-446q-34 0 -57 -23t-23 -56zM1288 958q52 -28 83 -80t31 -114q0 -74 -46 -132q58 -64 58 -149t-58 -149 q46 -58 46 -132q0 -80 -52 -142q52 -62 52 -140q0 -48 -20 -92q82 4 160 96t78 158l-4 1306v12h-8q-14 0 -50 -2q-60 -2 -102 -2q-54 0 -91 -18t-52 -47t-20 -49t-5 -40v-284z" />
<glyph unicode="&#x2000;" horiz-adv-x="1768" />
<glyph unicode="&#x2001;" horiz-adv-x="3538" />
<glyph unicode="&#x2002;" horiz-adv-x="1768" />
<glyph unicode="&#x2003;" horiz-adv-x="3538" />
<glyph unicode="&#x2004;" horiz-adv-x="1178" />
<glyph unicode="&#x2005;" horiz-adv-x="884" />
<glyph unicode="&#x2006;" horiz-adv-x="588" />
<glyph unicode="&#x2007;" horiz-adv-x="588" />
<glyph unicode="&#x2008;" horiz-adv-x="442" />
<glyph unicode="&#x2009;" horiz-adv-x="706" />
<glyph unicode="&#x200a;" horiz-adv-x="196" />
<glyph unicode="&#x2010;" d="M102 614q0 188 73 358t197 294t294 197t358 73t358 -73t294 -197t197 -294t73 -358t-73 -358t-197 -294t-294 -197t-358 -73t-358 73t-294 197t-197 294t-73 358zM234 614q0 -214 106 -396t288 -287t396 -105t396 105t287 287t105 396t-105 396t-287 288t-396 106 t-396 -106t-288 -288t-106 -396zM590 494v252h862v-252h-862z" />
<glyph unicode="&#x2011;" d="M102 614q0 188 73 358t197 294t294 197t358 73t358 -73t294 -197t197 -294t73 -358t-73 -358t-197 -294t-294 -197t-358 -73t-358 73t-294 197t-197 294t-73 358zM234 614q0 -214 106 -396t288 -287t396 -105t396 105t287 287t105 396t-105 396t-287 288t-396 106 t-396 -106t-288 -288t-106 -396zM590 494v252h862v-252h-862z" />
<glyph unicode="&#x2012;" d="M102 614q0 188 73 358t197 294t294 197t358 73t358 -73t294 -197t197 -294t73 -358t-73 -358t-197 -294t-294 -197t-358 -73t-358 73t-294 197t-197 294t-73 358zM234 614q0 -214 106 -396t288 -287t396 -105t396 105t287 287t105 396t-105 396t-287 288t-396 106 t-396 -106t-288 -288t-106 -396zM590 494v252h862v-252h-862z" />
<glyph unicode="&#x2013;" horiz-adv-x="1024" d="M102 -308v1844h820v-1844h-820z" />
<glyph unicode="&#x2014;" d="M102 -308v1844h1844v-1844h-1844z" />
<glyph unicode="&#x2026;" horiz-adv-x="6144" d="M4198 614q0 188 73 358t197 294t294 197t358 73t358 -73t294 -197t197 -294t73 -358t-73 -358t-197 -294t-294 -197t-358 -73t-358 73t-294 197t-197 294t-73 358zM4870 618h70v-454h-68v-244h538v244h-80v700h-460v-246zM4914 1177q0 -85 60 -145t145 -60t145 60t60 145 t-60 145t-145 60t-145 -60t-60 -145zM2150 614q0 188 73 358t197 294t294 197t358 73t358 -73t294 -197t197 -294t73 -358t-73 -358t-197 -294t-294 -197t-358 -73t-358 73t-294 197t-197 294t-73 358zM2822 618h70v-454h-68v-244h538v244h-80v700h-460v-246zM2866 1177 q0 -85 60 -145t145 -60t145 60t60 145t-60 145t-145 60t-145 -60t-60 -145zM102 614q0 188 73 358t197 294t294 197t358 73t358 -73t294 -197t197 -294t73 -358t-73 -358t-197 -294t-294 -197t-358 -73t-358 73t-294 197t-197 294t-73 358zM774 618h70v-454h-68v-244h538 v244h-80v700h-460v-246zM818 1177q0 -85 60 -145t145 -60t145 60t60 145t-60 145t-145 60t-145 -60t-60 -145z" />
<glyph unicode="&#x202f;" horiz-adv-x="706" />
<glyph unicode="&#x2039;" d="M102 614q0 188 73 358t197 294t294 197t358 73t358 -73t294 -197t197 -294t73 -358t-73 -358t-197 -294t-294 -197t-358 -73t-358 73t-294 197t-197 294t-73 358zM696 614q0 -16 10 -26l466 -464q18 -18 40 -9t22 35v928q0 16 -10 26q-6 6 -12 8q-24 10 -40 -8l-466 -464 q-10 -10 -10 -26z" />
<glyph unicode="&#x203a;" d="M102 614q0 188 73 358t197 294t294 197t358 73t358 -73t294 -197t197 -294t73 -358t-73 -358t-197 -294t-294 -197t-358 -73t-358 73t-294 197t-197 294t-73 358zM850 150q0 -16 12 -26q4 -6 12 -8q22 -10 40 8l464 464q12 10 12 26t-12 26l-464 464q-18 18 -41 9 t-23 -35v-928z" />
<glyph unicode="&#x205f;" horiz-adv-x="884" />
<glyph unicode="&#xe000;" horiz-adv-x="1535" d="M0 1535h1535v-1535h-1535v1535z" />
<glyph unicode="&#xfb01;" horiz-adv-x="4096" d="M2522 980q0 230 161 393t389 163t389 -162t161 -392q0 -176 -102 -330q-76 -128 -127 -250t-45 -158q3 -12 3 -23q0 -26 -17 -47q-28 -36 -62 -36h-396q-34 0 -62 36q-17 21 -17 46q0 10 3 22q6 36 -46 158t-128 250q-104 158 -104 330zM2678 982q0 -126 78 -246 q2 0 2 -3v-3q164 -276 192 -434h248q26 158 188 434q2 0 2 2t2 2q76 116 76 248q0 164 -115 281t-279 117t-279 -117t-115 -281zM2850 -74q0 38 20 92t46 64q66 22 165 22t165 -22q26 -10 46 -64t20 -91t-20 -92t-44 -63q-64 -24 -64 -31t-31 -28t-78 -21t-79 21t-32 29 q0 2 -19 11t-42 24t-29 25q-24 46 -24 124zM3072 1239q-3 9 -3 19q0 15 7 30q12 24 39 31q9 2 18 2q17 0 33 -9q68 -36 117 -84t72 -87t36 -82t15 -59t2 -28q0 -24 -17 -32t-51 -8q-32 0 -49 7t-17 33q0 8 -1 19t-11 40t-26 56t-51 60t-81 57q-24 12 -32 35zM456 968 q0 236 166 402t402 166t402 -166t166 -402q0 -146 -78 -282h2l-492 -994l-492 994h2q-78 136 -78 282zM786 1038q0 -98 69 -168t169 -70t169 70t69 168q0 100 -70 170t-168 70t-168 -70t-70 -170z" />
<glyph unicode="&#xfb02;" horiz-adv-x="4096" d="M2188 320q18 94 96 142l346 210q49 29 104 29q21 0 42 -4q78 -15 136 -75l-108 -66q-32 25 -64 25q-23 0 -46 -13l-346 -210q-36 -20 -43 -67q-1 -9 -1 -19q0 -37 22 -72l44 -72q28 -44 71 -59q18 -6 36 -6q23 0 43 11l346 212q42 26 42 82v10l110 68q12 -37 12 -74 q0 -39 -13 -77q-25 -75 -89 -113l-346 -210q-49 -30 -105 -30q-32 0 -66 10q-93 28 -145 114l-44 72q-39 65 -39 134q0 24 5 48zM2705 436q5 26 25 40l554 336q20 14 46 6t40 -34q16 -26 11 -52t-25 -40l-552 -338q-13 -9 -28 -9q-9 0 -19 4q-25 9 -41 35q-12 20 -12 40 q0 6 1 12zM3090 889q24 77 90 117l346 210q49 30 105 30q32 0 66 -10q93 -28 145 -114l44 -72q39 -65 39 -134q0 -24 -5 -47q-18 -93 -96 -141l-346 -212q-50 -29 -106 -29q-17 0 -35 3q-75 12 -133 68l108 68q31 -19 58 -19q23 0 44 13l346 210q36 20 43 67q1 9 1 19 q0 37 -22 72l-44 72q-28 44 -71 59q-18 6 -36 6q-23 0 -43 -11l-346 -212q-42 -25 -42 -81q0 -11 2 -23l-108 -64q-15 42 -15 84q0 35 11 71zM456 968q0 236 166 402t402 166t402 -166t166 -402q0 -146 -78 -282h2l-492 -994l-492 994h2q-78 136 -78 282zM786 1038 q0 -98 69 -168t169 -70t169 70t69 168q0 100 -70 170t-168 70t-168 -70t-70 -170z" />
<glyph unicode="&#xfb03;" horiz-adv-x="6144" d="M4570 980q0 230 161 393t389 163t389 -162t161 -392q0 -176 -102 -330q-76 -128 -127 -250t-45 -158q3 -12 3 -23q0 -26 -17 -47q-28 -36 -62 -36h-396q-34 0 -62 36q-17 21 -17 46q0 10 3 22q6 36 -46 158t-128 250q-104 158 -104 330zM4726 982q0 -126 78 -246 q2 0 2 -3v-3q164 -276 192 -434h248q26 158 188 434q2 0 2 2t2 2q76 116 76 248q0 164 -115 281t-279 117t-279 -117t-115 -281zM4898 -74q0 38 20 92t46 64q66 22 165 22t165 -22q26 -10 46 -64t20 -91t-20 -92t-44 -63q-64 -24 -64 -31t-31 -28t-78 -21t-79 21t-32 29 q0 2 -19 11t-42 24t-29 25q-24 46 -24 124zM5120 1239q-3 9 -3 19q0 15 7 30q12 24 39 31q9 2 18 2q17 0 33 -9q68 -36 117 -84t72 -87t36 -82t15 -59t2 -28q0 -24 -17 -32t-51 -8q-32 0 -49 7t-17 33q0 8 -1 19t-11 40t-26 56t-51 60t-81 57q-24 12 -32 35zM2504 968 q0 236 166 402t402 166t402 -166t166 -402q0 -146 -78 -282h2l-492 -994l-492 994h2q-78 136 -78 282zM2834 1038q0 -98 69 -168t169 -70t169 70t69 168q0 100 -70 170t-168 70t-168 -70t-70 -170zM456 968q0 236 166 402t402 166t402 -166t166 -402q0 -146 -78 -282h2 l-492 -994l-492 994h2q-78 136 -78 282zM786 1038q0 -98 69 -168t169 -70t169 70t69 168q0 100 -70 170t-168 70t-168 -70t-70 -170z" />
<glyph unicode="&#xfb04;" horiz-adv-x="6144" d="M4236 320q18 94 96 142l346 210q49 29 104 29q21 0 42 -4q78 -15 136 -75l-108 -66q-32 25 -64 25q-23 0 -46 -13l-346 -210q-36 -20 -43 -67q-1 -9 -1 -19q0 -37 22 -72l44 -72q28 -44 71 -59q18 -6 36 -6q23 0 43 11l346 212q42 26 42 82v10l110 68q12 -37 12 -74 q0 -39 -13 -77q-25 -75 -89 -113l-346 -210q-49 -30 -105 -30q-32 0 -66 10q-93 28 -145 114l-44 72q-39 65 -39 134q0 24 5 48zM4753 436q5 26 25 40l554 336q20 14 46 6t40 -34q16 -26 11 -52t-25 -40l-552 -338q-13 -9 -28 -9q-9 0 -19 4q-25 9 -41 35q-12 20 -12 40 q0 6 1 12zM5138 889q24 77 90 117l346 210q49 30 105 30q32 0 66 -10q93 -28 145 -114l44 -72q39 -65 39 -134q0 -24 -5 -47q-18 -93 -96 -141l-346 -212q-50 -29 -106 -29q-17 0 -35 3q-75 12 -133 68l108 68q31 -19 58 -19q23 0 44 13l346 210q36 20 43 67q1 9 1 19 q0 37 -22 72l-44 72q-28 44 -71 59q-18 6 -36 6q-23 0 -43 -11l-346 -212q-42 -25 -42 -81q0 -11 2 -23l-108 -64q-15 42 -15 84q0 35 11 71zM2504 968q0 236 166 402t402 166t402 -166t166 -402q0 -146 -78 -282h2l-492 -994l-492 994h2q-78 136 -78 282zM2834 1038 q0 -98 69 -168t169 -70t169 70t69 168q0 100 -70 170t-168 70t-168 -70t-70 -170zM456 968q0 236 166 402t402 166t402 -166t166 -402q0 -146 -78 -282h2l-492 -994l-492 994h2q-78 136 -78 282zM786 1038q0 -98 69 -168t169 -70t169 70t69 168q0 100 -70 170t-168 70 t-168 -70t-70 -170z" />
</font>
</defs>
</svg>
